<?xml version="1.0" encoding="utf-8" standalone="no"?>
<!DOCTYPE svg PUBLIC "-//W3C//DTD SVG 1.1//EN"
  "http://www.w3.org/Graphics/SVG/1.1/DTD/svg11.dtd">
<!-- Created with matplotlib (https://matplotlib.org/) -->
<svg height="393.358437pt" version="1.1" viewBox="0 0 736.314062 393.358437" width="736.314062pt" xmlns="http://www.w3.org/2000/svg" xmlns:xlink="http://www.w3.org/1999/xlink">
 <defs>
  <style type="text/css">
*{stroke-linecap:butt;stroke-linejoin:round;}
  </style>
 </defs>
 <g id="figure_1">
  <g id="patch_1">
   <path d="M 0 393.358437 
L 736.314062 393.358437 
L 736.314062 0 
L 0 0 
z
" style="fill:#ffffff;"/>
  </g>
  <g id="axes_1">
   <g id="patch_2">
    <path d="M 59.514063 356.53875 
L 729.114063 356.53875 
L 729.114063 30.37875 
L 59.514063 30.37875 
z
" style="fill:#ffffff;"/>
   </g>
   <g id="matplotlib.axis_1">
    <g id="xtick_1">
     <g id="text_1">
      <!-- 0 -->
      <defs>
       <path d="M 4.15625 35.296875 
Q 4.15625 48 6.765625 55.734375 
Q 9.375 63.484375 14.515625 67.671875 
Q 19.671875 71.875 27.484375 71.875 
Q 33.25 71.875 37.59375 69.546875 
Q 41.9375 67.234375 44.765625 62.859375 
Q 47.609375 58.5 49.21875 52.21875 
Q 50.828125 45.953125 50.828125 35.296875 
Q 50.828125 22.703125 48.234375 14.96875 
Q 45.65625 7.234375 40.5 3 
Q 35.359375 -1.21875 27.484375 -1.21875 
Q 17.140625 -1.21875 11.234375 6.203125 
Q 4.15625 15.140625 4.15625 35.296875 
z
M 13.1875 35.296875 
Q 13.1875 17.671875 17.3125 11.828125 
Q 21.4375 6 27.484375 6 
Q 33.546875 6 37.671875 11.859375 
Q 41.796875 17.71875 41.796875 35.296875 
Q 41.796875 52.984375 37.671875 58.78125 
Q 33.546875 64.59375 27.390625 64.59375 
Q 21.34375 64.59375 17.71875 59.46875 
Q 13.1875 52.9375 13.1875 35.296875 
z
" id="ArialMT-48"/>
      </defs>
      <g style="fill:#262626;" transform="translate(83.833395 381.785937)scale(0.22 -0.22)">
       <use xlink:href="#ArialMT-48"/>
      </g>
     </g>
    </g>
    <g id="xtick_2">
     <g id="text_2">
      <!-- 50 -->
      <defs>
       <path d="M 4.15625 18.75 
L 13.375 19.53125 
Q 14.40625 12.796875 18.140625 9.390625 
Q 21.875 6 27.15625 6 
Q 33.5 6 37.890625 10.78125 
Q 42.28125 15.578125 42.28125 23.484375 
Q 42.28125 31 38.0625 35.34375 
Q 33.84375 39.703125 27 39.703125 
Q 22.75 39.703125 19.328125 37.765625 
Q 15.921875 35.84375 13.96875 32.765625 
L 5.71875 33.84375 
L 12.640625 70.609375 
L 48.25 70.609375 
L 48.25 62.203125 
L 19.671875 62.203125 
L 15.828125 42.96875 
Q 22.265625 47.46875 29.34375 47.46875 
Q 38.71875 47.46875 45.15625 40.96875 
Q 51.609375 34.46875 51.609375 24.265625 
Q 51.609375 14.546875 45.953125 7.46875 
Q 39.0625 -1.21875 27.15625 -1.21875 
Q 17.390625 -1.21875 11.203125 4.25 
Q 5.03125 9.71875 4.15625 18.75 
z
" id="ArialMT-53"/>
      </defs>
      <g style="fill:#262626;" transform="translate(161.332747 381.785937)scale(0.22 -0.22)">
       <use xlink:href="#ArialMT-53"/>
       <use x="55.615234" xlink:href="#ArialMT-48"/>
      </g>
     </g>
    </g>
    <g id="xtick_3">
     <g id="text_3">
      <!-- 100 -->
      <defs>
       <path d="M 37.25 0 
L 28.46875 0 
L 28.46875 56 
Q 25.296875 52.984375 20.140625 49.953125 
Q 14.984375 46.921875 10.890625 45.40625 
L 10.890625 53.90625 
Q 18.265625 57.375 23.78125 62.296875 
Q 29.296875 67.234375 31.59375 71.875 
L 37.25 71.875 
z
" id="ArialMT-49"/>
      </defs>
      <g style="fill:#262626;" transform="translate(238.8321 381.785937)scale(0.22 -0.22)">
       <use xlink:href="#ArialMT-49"/>
       <use x="55.615234" xlink:href="#ArialMT-48"/>
       <use x="111.230469" xlink:href="#ArialMT-48"/>
      </g>
     </g>
    </g>
    <g id="xtick_4">
     <g id="text_4">
      <!-- 150 -->
      <g style="fill:#262626;" transform="translate(322.448483 381.785937)scale(0.22 -0.22)">
       <use xlink:href="#ArialMT-49"/>
       <use x="55.615234" xlink:href="#ArialMT-53"/>
       <use x="111.230469" xlink:href="#ArialMT-48"/>
      </g>
     </g>
    </g>
    <g id="xtick_5">
     <g id="text_5">
      <!-- 200 -->
      <defs>
       <path d="M 50.34375 8.453125 
L 50.34375 0 
L 3.03125 0 
Q 2.9375 3.171875 4.046875 6.109375 
Q 5.859375 10.9375 9.828125 15.625 
Q 13.8125 20.3125 21.34375 26.46875 
Q 33.015625 36.03125 37.109375 41.625 
Q 41.21875 47.21875 41.21875 52.203125 
Q 41.21875 57.421875 37.46875 61 
Q 33.734375 64.59375 27.734375 64.59375 
Q 21.390625 64.59375 17.578125 60.78125 
Q 13.765625 56.984375 13.71875 50.25 
L 4.6875 51.171875 
Q 5.609375 61.28125 11.65625 66.578125 
Q 17.71875 71.875 27.9375 71.875 
Q 38.234375 71.875 44.234375 66.15625 
Q 50.25 60.453125 50.25 52 
Q 50.25 47.703125 48.484375 43.546875 
Q 46.734375 39.40625 42.65625 34.8125 
Q 38.578125 30.21875 29.109375 22.21875 
Q 21.1875 15.578125 18.9375 13.203125 
Q 16.703125 10.84375 15.234375 8.453125 
z
" id="ArialMT-50"/>
      </defs>
      <g style="fill:#262626;" transform="translate(406.064867 381.785937)scale(0.22 -0.22)">
       <use xlink:href="#ArialMT-50"/>
       <use x="55.615234" xlink:href="#ArialMT-48"/>
       <use x="111.230469" xlink:href="#ArialMT-48"/>
      </g>
     </g>
    </g>
    <g id="xtick_6">
     <g id="text_6">
      <!-- 250 -->
      <g style="fill:#262626;" transform="translate(489.68125 381.785937)scale(0.22 -0.22)">
       <use xlink:href="#ArialMT-50"/>
       <use x="55.615234" xlink:href="#ArialMT-53"/>
       <use x="111.230469" xlink:href="#ArialMT-48"/>
      </g>
     </g>
    </g>
    <g id="xtick_7">
     <g id="text_7">
      <!-- 300 -->
      <defs>
       <path d="M 4.203125 18.890625 
L 12.984375 20.0625 
Q 14.5 12.59375 18.140625 9.296875 
Q 21.78125 6 27 6 
Q 33.203125 6 37.46875 10.296875 
Q 41.75 14.59375 41.75 20.953125 
Q 41.75 27 37.796875 30.921875 
Q 33.84375 34.859375 27.734375 34.859375 
Q 25.25 34.859375 21.53125 33.890625 
L 22.515625 41.609375 
Q 23.390625 41.5 23.921875 41.5 
Q 29.546875 41.5 34.03125 44.421875 
Q 38.53125 47.359375 38.53125 53.46875 
Q 38.53125 58.296875 35.25 61.46875 
Q 31.984375 64.65625 26.8125 64.65625 
Q 21.6875 64.65625 18.265625 61.421875 
Q 14.84375 58.203125 13.875 51.765625 
L 5.078125 53.328125 
Q 6.6875 62.15625 12.390625 67.015625 
Q 18.109375 71.875 26.609375 71.875 
Q 32.46875 71.875 37.390625 69.359375 
Q 42.328125 66.84375 44.9375 62.5 
Q 47.5625 58.15625 47.5625 53.265625 
Q 47.5625 48.640625 45.0625 44.828125 
Q 42.578125 41.015625 37.703125 38.765625 
Q 44.046875 37.3125 47.5625 32.6875 
Q 51.078125 28.078125 51.078125 21.140625 
Q 51.078125 11.765625 44.234375 5.25 
Q 37.40625 -1.265625 26.953125 -1.265625 
Q 17.53125 -1.265625 11.296875 4.34375 
Q 5.078125 9.96875 4.203125 18.890625 
z
" id="ArialMT-51"/>
      </defs>
      <g style="fill:#262626;" transform="translate(573.297634 381.785937)scale(0.22 -0.22)">
       <use xlink:href="#ArialMT-51"/>
       <use x="55.615234" xlink:href="#ArialMT-48"/>
       <use x="111.230469" xlink:href="#ArialMT-48"/>
      </g>
     </g>
    </g>
    <g id="xtick_8">
     <g id="text_8">
      <!-- 350 -->
      <g style="fill:#262626;" transform="translate(656.914018 381.785937)scale(0.22 -0.22)">
       <use xlink:href="#ArialMT-51"/>
       <use x="55.615234" xlink:href="#ArialMT-53"/>
       <use x="111.230469" xlink:href="#ArialMT-48"/>
      </g>
     </g>
    </g>
   </g>
   <g id="matplotlib.axis_2">
    <g id="ytick_1">
     <g id="text_9">
      <!-- 0.00 -->
      <defs>
       <path d="M 9.078125 0 
L 9.078125 10.015625 
L 19.09375 10.015625 
L 19.09375 0 
z
" id="ArialMT-46"/>
      </defs>
      <g style="fill:#262626;" transform="translate(7.2 349.586889)scale(0.22 -0.22)">
       <use xlink:href="#ArialMT-48"/>
       <use x="55.615234" xlink:href="#ArialMT-46"/>
       <use x="83.398438" xlink:href="#ArialMT-48"/>
       <use x="139.013672" xlink:href="#ArialMT-48"/>
      </g>
     </g>
    </g>
    <g id="ytick_2">
     <g id="text_10">
      <!-- 0.05 -->
      <g style="fill:#262626;" transform="translate(7.2 262.544288)scale(0.22 -0.22)">
       <use xlink:href="#ArialMT-48"/>
       <use x="55.615234" xlink:href="#ArialMT-46"/>
       <use x="83.398438" xlink:href="#ArialMT-48"/>
       <use x="139.013672" xlink:href="#ArialMT-53"/>
      </g>
     </g>
    </g>
    <g id="ytick_3">
     <g id="text_11">
      <!-- 0.10 -->
      <g style="fill:#262626;" transform="translate(7.2 175.501686)scale(0.22 -0.22)">
       <use xlink:href="#ArialMT-48"/>
       <use x="55.615234" xlink:href="#ArialMT-46"/>
       <use x="83.398438" xlink:href="#ArialMT-49"/>
       <use x="139.013672" xlink:href="#ArialMT-48"/>
      </g>
     </g>
    </g>
    <g id="ytick_4">
     <g id="text_12">
      <!-- 0.15 -->
      <g style="fill:#262626;" transform="translate(7.2 88.459084)scale(0.22 -0.22)">
       <use xlink:href="#ArialMT-48"/>
       <use x="55.615234" xlink:href="#ArialMT-46"/>
       <use x="83.398438" xlink:href="#ArialMT-49"/>
       <use x="139.013672" xlink:href="#ArialMT-53"/>
      </g>
     </g>
    </g>
   </g>
   <g id="line2d_1">
    <path clip-path="url(#p6ea5d324b6)" d="M 89.950426 341.713295 
L 155.171205 341.603904 
L 170.222154 341.361288 
L 178.583793 341.029936 
L 185.273103 340.54611 
L 190.290086 339.966767 
L 193.634742 339.432756 
L 196.979397 338.732918 
L 200.324053 337.819445 
L 203.668708 336.612816 
L 207.013363 335.048099 
L 208.685691 334.094817 
L 210.358019 333.006478 
L 212.030346 331.762642 
L 213.702674 330.349905 
L 215.375002 328.739615 
L 217.047329 326.907607 
L 218.719657 324.825404 
L 220.391985 322.455002 
L 222.064312 319.778772 
L 223.73664 316.756443 
L 225.408968 313.352994 
L 227.081295 309.535917 
L 228.753623 305.252785 
L 230.425951 300.467655 
L 232.098278 295.154984 
L 233.770606 289.275993 
L 235.442934 282.774489 
L 237.115261 275.657448 
L 238.787589 267.883405 
L 240.459917 259.451756 
L 242.132244 250.357031 
L 245.4769 230.325202 
L 248.821555 208.106846 
L 253.838538 172.11654 
L 258.855521 135.636775 
L 262.200176 112.748681 
L 263.872504 102.119813 
L 265.544832 92.22658 
L 267.217159 83.130018 
L 268.889487 74.919587 
L 270.561815 67.602652 
L 272.234142 61.29151 
L 273.90647 56.024816 
L 275.578798 51.828395 
L 277.251125 48.66863 
L 278.923453 46.543343 
L 280.595781 45.400345 
L 282.268108 45.204205 
L 283.940436 45.915717 
L 285.612764 47.511931 
L 287.285091 49.872815 
L 288.957419 52.976928 
L 290.629747 56.699935 
L 292.302074 61.059731 
L 293.974402 65.983144 
L 297.319058 77.060142 
L 300.663713 89.475692 
L 305.680696 109.548377 
L 319.059317 164.077968 
L 324.0763 183.335928 
L 329.093283 201.557063 
L 334.110266 218.703913 
L 337.454922 229.550491 
L 342.471905 244.783728 
L 345.81656 254.257068 
L 349.161215 263.160768 
L 352.505871 271.474149 
L 355.850526 279.159937 
L 359.195181 286.253878 
L 362.539837 292.725648 
L 365.884492 298.570959 
L 369.229147 303.801443 
L 372.573803 308.459476 
L 375.918458 312.606257 
L 379.263113 316.26171 
L 382.607769 319.453444 
L 385.952424 322.253978 
L 389.297079 324.714575 
L 392.641735 326.858138 
L 395.98639 328.749386 
L 399.331046 330.389753 
L 402.675701 331.82528 
L 407.692684 333.62908 
L 412.709667 335.102012 
L 417.72665 336.295201 
L 422.743633 337.283664 
L 429.432944 338.344409 
L 436.122254 339.179401 
L 444.483893 339.985809 
L 454.517859 340.665608 
L 464.551825 341.10484 
L 476.258118 341.403268 
L 494.653723 341.610121 
L 526.427949 341.69791 
L 691.988388 341.713295 
L 698.677699 341.713295 
L 698.677699 341.713295 
" style="fill:none;stroke:#4da07e;stroke-linecap:round;stroke-width:1.5;"/>
   </g>
   <g id="line2d_2">
    <path clip-path="url(#p6ea5d324b6)" d="M 89.950426 341.713295 
L 155.171205 341.603904 
L 170.222154 341.361288 
L 178.583793 341.029936 
L 185.273103 340.54611 
L 190.290086 339.966767 
L 193.634742 339.432756 
L 196.979397 338.732918 
L 200.324053 337.819445 
L 203.668708 336.612816 
L 207.013363 335.048099 
L 208.685691 334.094817 
L 210.358019 334.409525 
L 217.047329 334.466751 
L 220.391985 334.750809 
L 223.73664 335.4022 
L 228.753623 336.467149 
L 232.098278 336.866164 
L 240.459917 337.673866 
L 248.821555 338.437495 
L 255.510866 338.907498 
L 257.183193 339.205873 
L 263.872504 337.456377 
L 267.217159 336.581888 
L 268.889487 335.927172 
L 270.561815 335.081856 
L 272.234142 334.06421 
L 275.578798 331.599287 
L 278.923453 328.662183 
L 280.595781 326.955101 
L 282.268108 325.00403 
L 283.940436 322.760133 
L 285.612764 320.193246 
L 287.285091 317.30243 
L 288.957419 314.065823 
L 290.629747 310.438371 
L 292.302074 306.421962 
L 293.974402 301.987565 
L 295.64673 297.071086 
L 297.319058 291.663815 
L 298.991385 285.742833 
L 300.663713 279.273695 
L 302.336041 272.24146 
L 304.008368 264.673949 
L 307.353024 248.007609 
L 310.697679 229.55177 
L 315.714662 199.61764 
L 320.731645 169.142707 
L 324.0763 149.96521 
L 327.420956 132.645536 
L 329.093283 124.891903 
L 330.765611 117.814579 
L 332.437939 111.492828 
L 334.110266 105.91224 
L 335.782594 101.173294 
L 337.454922 97.210862 
L 339.127249 94.084122 
L 340.799577 91.740049 
L 342.471905 90.144345 
L 344.144232 89.285686 
L 345.81656 89.102501 
L 347.488888 89.6401 
L 349.161215 90.738245 
L 350.833543 92.470158 
L 352.505871 94.647888 
L 354.178198 97.323665 
L 355.850526 100.419482 
L 357.522854 103.862366 
L 360.867509 111.675038 
L 364.212164 120.3849 
L 369.229147 134.394695 
L 380.935441 167.851042 
L 385.952424 181.408917 
L 390.969407 194.283564 
L 394.314062 202.462814 
L 399.331046 214.026476 
L 404.348029 224.83982 
L 409.365012 234.972687 
L 414.381995 244.608691 
L 421.071305 256.91611 
L 427.760616 268.78624 
L 434.449927 280.331512 
L 439.46691 288.657611 
L 444.483893 296.530484 
L 447.828548 301.490093 
L 452.845531 308.362048 
L 456.190186 312.502298 
L 459.534842 316.27129 
L 462.879497 319.670748 
L 466.224152 322.709867 
L 469.568808 325.402859 
L 472.913463 327.770656 
L 476.258118 329.825465 
L 479.602774 331.622378 
L 482.947429 333.154037 
L 486.292084 334.479748 
L 489.63674 335.603079 
L 492.981395 336.555797 
L 497.998378 337.70975 
L 503.015361 338.583918 
L 508.032344 339.236367 
L 514.721655 339.841791 
L 521.410966 340.223433 
L 531.444932 340.51936 
L 586.631745 341.420607 
L 611.71666 341.634119 
L 655.197179 341.706263 
L 698.677699 341.71254 
L 698.677699 341.71254 
" style="fill:none;stroke:#d4743e;stroke-linecap:round;stroke-width:1.5;"/>
   </g>
   <g id="line2d_3">
    <path clip-path="url(#p6ea5d324b6)" d="M 89.950426 341.713295 
L 155.171205 341.603904 
L 170.222154 341.361288 
L 178.583793 341.029936 
L 185.273103 340.54611 
L 190.290086 339.966767 
L 193.634742 339.432756 
L 196.979397 338.732918 
L 200.324053 337.819445 
L 203.668708 336.612816 
L 207.013363 335.048099 
L 208.685691 334.094817 
L 210.358019 334.409525 
L 217.047329 334.466751 
L 220.391985 334.750809 
L 223.73664 335.4022 
L 228.753623 336.467149 
L 232.098278 336.866164 
L 240.459917 337.673866 
L 248.821555 338.437495 
L 262.200176 339.32182 
L 275.578798 339.975988 
L 290.629747 340.490932 
L 304.008368 340.884069 
L 315.714662 339.785311 
L 319.059317 339.150401 
L 322.403973 338.311564 
L 325.748628 337.298051 
L 329.093283 336.011688 
L 332.437939 334.308805 
L 334.110266 333.259996 
L 335.782594 332.065218 
L 337.454922 330.715742 
L 339.127249 329.191792 
L 340.799577 327.470505 
L 342.471905 325.532824 
L 344.144232 323.33953 
L 345.81656 320.876745 
L 347.488888 318.098306 
L 349.161215 314.997782 
L 350.833543 311.528641 
L 352.505871 307.676895 
L 354.178198 303.398454 
L 355.850526 298.68776 
L 357.522854 293.531634 
L 359.195181 287.893404 
L 360.867509 281.775282 
L 362.539837 275.149514 
L 365.884492 260.525751 
L 369.229147 244.264191 
L 372.573803 226.766718 
L 380.935441 182.16946 
L 384.280096 165.941261 
L 385.952424 158.547757 
L 387.624752 151.686351 
L 389.297079 145.440751 
L 390.969407 139.848351 
L 392.641735 134.923295 
L 394.314062 130.674717 
L 395.98639 127.125058 
L 397.658718 124.267348 
L 399.331046 122.071475 
L 401.003373 120.532931 
L 402.675701 119.573139 
L 404.348029 119.187527 
L 406.020356 119.354279 
L 407.692684 120.073889 
L 409.365012 121.246492 
L 411.037339 122.812899 
L 412.709667 124.809193 
L 414.381995 127.17278 
L 416.054322 129.879702 
L 417.72665 132.90624 
L 421.071305 139.726731 
L 424.415961 147.320851 
L 429.432944 159.569344 
L 437.794582 180.368966 
L 442.811565 192.097566 
L 446.15622 199.380565 
L 451.173203 209.519337 
L 456.190186 218.81589 
L 461.207169 227.534242 
L 467.89648 238.519061 
L 474.585791 248.92179 
L 479.602774 256.324964 
L 484.619757 263.334378 
L 489.63674 269.884851 
L 492.981395 274.012126 
L 497.998378 279.823845 
L 503.015361 285.189606 
L 508.032344 290.224319 
L 513.049327 294.980973 
L 518.06631 299.50296 
L 524.755621 305.257041 
L 531.444932 310.72647 
L 536.461915 314.587328 
L 541.478898 318.22236 
L 546.495881 321.565241 
L 549.840536 323.63581 
L 554.857519 326.455905 
L 559.874502 328.945441 
L 564.891485 331.106013 
L 569.908468 332.952093 
L 574.925451 334.535181 
L 579.942434 335.870797 
L 584.959417 336.993841 
L 591.648728 338.207477 
L 598.338039 339.149846 
L 605.027349 339.867448 
L 613.388988 340.518135 
L 623.422954 341.0195 
L 635.129247 341.355141 
L 651.852524 341.576268 
L 680.282094 341.686458 
L 698.677699 341.704995 
L 698.677699 341.704995 
" style="fill:none;stroke:#716dad;stroke-linecap:round;stroke-width:1.5;"/>
   </g>
   <g id="line2d_4">
    <path clip-path="url(#p6ea5d324b6)" d="M 89.950426 341.713295 
L 155.171205 341.603904 
L 170.222154 341.361288 
L 178.583793 341.029936 
L 185.273103 340.54611 
L 190.290086 339.966767 
L 193.634742 339.432756 
L 196.979397 338.732918 
L 200.324053 337.819445 
L 203.668708 336.612816 
L 207.013363 335.048099 
L 208.685691 334.094817 
L 210.358019 334.409525 
L 217.047329 334.466751 
L 220.391985 334.750809 
L 223.73664 335.4022 
L 228.753623 336.467149 
L 232.098278 336.866164 
L 240.459917 337.673866 
L 248.821555 338.437495 
L 262.200176 339.32182 
L 275.578798 339.975988 
L 290.629747 340.490932 
L 310.697679 340.952774 
L 335.782594 341.289753 
L 352.505871 341.379235 
L 364.212164 340.958383 
L 370.901475 340.383364 
L 375.918458 339.745537 
L 379.263113 339.144992 
L 382.607769 338.342899 
L 385.952424 337.300516 
L 389.297079 335.959158 
L 392.641735 334.220233 
L 394.314062 333.163594 
L 395.98639 331.956642 
L 397.658718 330.586893 
L 399.331046 329.040203 
L 401.003373 327.298158 
L 402.675701 325.327483 
L 404.348029 323.103513 
L 406.020356 320.611172 
L 407.692684 317.81385 
L 409.365012 314.684207 
L 411.037339 311.192352 
L 412.709667 307.321502 
L 414.381995 303.060677 
L 416.054322 298.377448 
L 417.72665 293.241131 
L 419.398978 287.67369 
L 421.071305 281.681453 
L 424.415961 268.394193 
L 427.760616 253.61716 
L 431.105271 237.748047 
L 437.794582 205.199573 
L 441.139237 189.997581 
L 442.811565 182.979821 
L 444.483893 176.467593 
L 446.15622 170.5021 
L 447.828548 165.09184 
L 449.500876 160.298346 
L 451.173203 156.161338 
L 452.845531 152.652452 
L 454.517859 149.796777 
L 456.190186 147.530011 
L 457.862514 145.853019 
L 459.534842 144.676692 
L 461.207169 144.052091 
L 462.879497 143.916882 
L 464.551825 144.229222 
L 466.224152 144.972911 
L 467.89648 146.09263 
L 469.568808 147.58621 
L 471.241135 149.402524 
L 472.913463 151.537362 
L 474.585791 153.974396 
L 476.258118 156.633469 
L 479.602774 162.635462 
L 482.947429 169.355917 
L 487.964412 180.217796 
L 497.998378 202.429494 
L 503.015361 212.910546 
L 506.360017 219.56344 
L 511.377 229.016881 
L 518.06631 240.968559 
L 524.755621 252.287069 
L 531.444932 263.100388 
L 536.461915 270.789821 
L 541.478898 278.01157 
L 544.823553 282.525374 
L 548.168208 286.788316 
L 553.185191 292.645712 
L 556.529847 296.247402 
L 561.54683 301.205012 
L 566.563813 305.766152 
L 571.580796 309.988157 
L 576.597779 313.964437 
L 581.614762 317.727863 
L 588.304072 322.371513 
L 593.321056 325.553162 
L 596.665711 327.492462 
L 600.010366 329.242964 
L 605.027349 331.551401 
L 608.372005 332.880558 
L 611.71666 334.023866 
L 616.733643 335.444746 
L 621.750626 336.568831 
L 626.767609 337.463036 
L 633.45692 338.382637 
L 641.818558 339.275637 
L 651.852524 340.103197 
L 661.88649 340.710731 
L 673.592784 341.178668 
L 686.971405 341.47087 
L 698.677699 341.593173 
L 698.677699 341.593173 
" style="fill:none;stroke:#df3793;stroke-linecap:round;stroke-width:1.5;"/>
   </g>
   <g id="line2d_5">
    <path clip-path="url(#p6ea5d324b6)" d="M 89.950426 341.713295 
L 155.171205 341.603904 
L 170.222154 341.361288 
L 178.583793 341.029936 
L 185.273103 340.54611 
L 190.290086 339.966767 
L 193.634742 339.432756 
L 196.979397 338.732918 
L 200.324053 337.819445 
L 203.668708 336.612816 
L 207.013363 335.048099 
L 208.685691 334.094817 
L 210.358019 334.409525 
L 217.047329 334.466751 
L 220.391985 334.750809 
L 223.73664 335.4022 
L 228.753623 336.467149 
L 232.098278 336.866164 
L 240.459917 337.673866 
L 248.821555 338.437495 
L 262.200176 339.32182 
L 275.578798 339.975988 
L 290.629747 340.490932 
L 310.697679 340.952774 
L 335.782594 341.289753 
L 374.24613 341.537665 
L 441.139237 341.672791 
L 613.388988 341.712818 
L 698.677699 341.713261 
L 698.677699 341.713261 
" style="fill:none;stroke:#bed4e7;stroke-linecap:round;stroke-width:1.5;"/>
   </g>
   <g id="patch_3">
    <path d="M 59.514063 356.53875 
L 59.514063 30.37875 
" style="fill:none;stroke:#262626;stroke-linecap:square;stroke-linejoin:miter;stroke-width:1.25;"/>
   </g>
   <g id="patch_4">
    <path d="M 729.114063 356.53875 
L 729.114063 30.37875 
" style="fill:none;stroke:#262626;stroke-linecap:square;stroke-linejoin:miter;stroke-width:1.25;"/>
   </g>
   <g id="patch_5">
    <path d="M 59.514062 356.53875 
L 729.114062 356.53875 
" style="fill:none;stroke:#262626;stroke-linecap:square;stroke-linejoin:miter;stroke-width:1.25;"/>
   </g>
   <g id="patch_6">
    <path d="M 59.514062 30.37875 
L 729.114062 30.37875 
" style="fill:none;stroke:#262626;stroke-linecap:square;stroke-linejoin:miter;stroke-width:1.25;"/>
   </g>
   <g id="text_13">
    <!-- Prevalence -->
    <defs>
     <path d="M 7.71875 0 
L 7.71875 71.578125 
L 34.71875 71.578125 
Q 41.84375 71.578125 45.609375 70.90625 
Q 50.875 70.015625 54.4375 67.546875 
Q 58.015625 65.09375 60.1875 60.640625 
Q 62.359375 56.203125 62.359375 50.875 
Q 62.359375 41.75 56.546875 35.421875 
Q 50.734375 29.109375 35.546875 29.109375 
L 17.1875 29.109375 
L 17.1875 0 
z
M 17.1875 37.546875 
L 35.6875 37.546875 
Q 44.875 37.546875 48.734375 40.96875 
Q 52.59375 44.390625 52.59375 50.59375 
Q 52.59375 55.078125 50.3125 58.265625 
Q 48.046875 61.46875 44.34375 62.5 
Q 41.9375 63.140625 35.5 63.140625 
L 17.1875 63.140625 
z
" id="ArialMT-80"/>
     <path d="M 6.5 0 
L 6.5 51.859375 
L 14.40625 51.859375 
L 14.40625 44 
Q 17.4375 49.515625 20 51.265625 
Q 22.5625 53.03125 25.640625 53.03125 
Q 30.078125 53.03125 34.671875 50.203125 
L 31.640625 42.046875 
Q 28.421875 43.953125 25.203125 43.953125 
Q 22.3125 43.953125 20.015625 42.21875 
Q 17.71875 40.484375 16.75 37.40625 
Q 15.28125 32.71875 15.28125 27.15625 
L 15.28125 0 
z
" id="ArialMT-114"/>
     <path d="M 42.09375 16.703125 
L 51.171875 15.578125 
Q 49.03125 7.625 43.21875 3.21875 
Q 37.40625 -1.171875 28.375 -1.171875 
Q 17 -1.171875 10.328125 5.828125 
Q 3.65625 12.84375 3.65625 25.484375 
Q 3.65625 38.578125 10.390625 45.796875 
Q 17.140625 53.03125 27.875 53.03125 
Q 38.28125 53.03125 44.875 45.953125 
Q 51.46875 38.875 51.46875 26.03125 
Q 51.46875 25.25 51.421875 23.6875 
L 12.75 23.6875 
Q 13.234375 15.140625 17.578125 10.59375 
Q 21.921875 6.0625 28.421875 6.0625 
Q 33.25 6.0625 36.671875 8.59375 
Q 40.09375 11.140625 42.09375 16.703125 
z
M 13.234375 30.90625 
L 42.1875 30.90625 
Q 41.609375 37.453125 38.875 40.71875 
Q 34.671875 45.796875 27.984375 45.796875 
Q 21.921875 45.796875 17.796875 41.75 
Q 13.671875 37.703125 13.234375 30.90625 
z
" id="ArialMT-101"/>
     <path d="M 21 0 
L 1.265625 51.859375 
L 10.546875 51.859375 
L 21.6875 20.796875 
Q 23.484375 15.765625 25 10.359375 
Q 26.171875 14.453125 28.265625 20.21875 
L 39.796875 51.859375 
L 48.828125 51.859375 
L 29.203125 0 
z
" id="ArialMT-118"/>
     <path d="M 40.4375 6.390625 
Q 35.546875 2.25 31.03125 0.53125 
Q 26.515625 -1.171875 21.34375 -1.171875 
Q 12.796875 -1.171875 8.203125 3 
Q 3.609375 7.171875 3.609375 13.671875 
Q 3.609375 17.484375 5.34375 20.625 
Q 7.078125 23.78125 9.890625 25.6875 
Q 12.703125 27.59375 16.21875 28.5625 
Q 18.796875 29.25 24.03125 29.890625 
Q 34.671875 31.15625 39.703125 32.90625 
Q 39.75 34.71875 39.75 35.203125 
Q 39.75 40.578125 37.25 42.78125 
Q 33.890625 45.75 27.25 45.75 
Q 21.046875 45.75 18.09375 43.578125 
Q 15.140625 41.40625 13.71875 35.890625 
L 5.125 37.0625 
Q 6.296875 42.578125 8.984375 45.96875 
Q 11.671875 49.359375 16.75 51.1875 
Q 21.828125 53.03125 28.515625 53.03125 
Q 35.15625 53.03125 39.296875 51.46875 
Q 43.453125 49.90625 45.40625 47.53125 
Q 47.359375 45.171875 48.140625 41.546875 
Q 48.578125 39.3125 48.578125 33.453125 
L 48.578125 21.734375 
Q 48.578125 9.46875 49.140625 6.21875 
Q 49.703125 2.984375 51.375 0 
L 42.1875 0 
Q 40.828125 2.734375 40.4375 6.390625 
z
M 39.703125 26.03125 
Q 34.90625 24.078125 25.34375 22.703125 
Q 19.921875 21.921875 17.671875 20.9375 
Q 15.4375 19.96875 14.203125 18.09375 
Q 12.984375 16.21875 12.984375 13.921875 
Q 12.984375 10.40625 15.640625 8.0625 
Q 18.3125 5.71875 23.4375 5.71875 
Q 28.515625 5.71875 32.46875 7.9375 
Q 36.421875 10.15625 38.28125 14.015625 
Q 39.703125 17 39.703125 22.796875 
z
" id="ArialMT-97"/>
     <path d="M 6.390625 0 
L 6.390625 71.578125 
L 15.1875 71.578125 
L 15.1875 0 
z
" id="ArialMT-108"/>
     <path d="M 6.59375 0 
L 6.59375 51.859375 
L 14.5 51.859375 
L 14.5 44.484375 
Q 20.21875 53.03125 31 53.03125 
Q 35.6875 53.03125 39.625 51.34375 
Q 43.5625 49.65625 45.515625 46.921875 
Q 47.46875 44.1875 48.25 40.4375 
Q 48.734375 37.984375 48.734375 31.890625 
L 48.734375 0 
L 39.9375 0 
L 39.9375 31.546875 
Q 39.9375 36.921875 38.90625 39.578125 
Q 37.890625 42.234375 35.28125 43.8125 
Q 32.671875 45.40625 29.15625 45.40625 
Q 23.53125 45.40625 19.453125 41.84375 
Q 15.375 38.28125 15.375 28.328125 
L 15.375 0 
z
" id="ArialMT-110"/>
     <path d="M 40.4375 19 
L 49.078125 17.875 
Q 47.65625 8.9375 41.8125 3.875 
Q 35.984375 -1.171875 27.484375 -1.171875 
Q 16.84375 -1.171875 10.375 5.78125 
Q 3.90625 12.75 3.90625 25.734375 
Q 3.90625 34.125 6.6875 40.421875 
Q 9.46875 46.734375 15.15625 49.875 
Q 20.84375 53.03125 27.546875 53.03125 
Q 35.984375 53.03125 41.359375 48.75 
Q 46.734375 44.484375 48.25 36.625 
L 39.703125 35.296875 
Q 38.484375 40.53125 35.375 43.15625 
Q 32.28125 45.796875 27.875 45.796875 
Q 21.234375 45.796875 17.078125 41.03125 
Q 12.9375 36.28125 12.9375 25.984375 
Q 12.9375 15.53125 16.9375 10.796875 
Q 20.953125 6.0625 27.390625 6.0625 
Q 32.5625 6.0625 36.03125 9.234375 
Q 39.5 12.40625 40.4375 19 
z
" id="ArialMT-99"/>
    </defs>
    <g style="fill:#262626;" transform="translate(334.282188 24.37875)scale(0.24 -0.24)">
     <use xlink:href="#ArialMT-80"/>
     <use x="66.699219" xlink:href="#ArialMT-114"/>
     <use x="100" xlink:href="#ArialMT-101"/>
     <use x="155.615234" xlink:href="#ArialMT-118"/>
     <use x="205.615234" xlink:href="#ArialMT-97"/>
     <use x="261.230469" xlink:href="#ArialMT-108"/>
     <use x="283.447266" xlink:href="#ArialMT-101"/>
     <use x="339.0625" xlink:href="#ArialMT-110"/>
     <use x="394.677734" xlink:href="#ArialMT-99"/>
     <use x="444.677734" xlink:href="#ArialMT-101"/>
    </g>
   </g>
   <g id="legend_1">
    <g id="patch_7">
     <path d="M 441.587813 205.735937 
L 713.714063 205.735937 
Q 718.114063 205.735937 718.114063 201.335937 
L 718.114063 45.77875 
Q 718.114063 41.37875 713.714063 41.37875 
L 441.587813 41.37875 
Q 437.187813 41.37875 437.187813 45.77875 
L 437.187813 201.335937 
Q 437.187813 205.735937 441.587813 205.735937 
z
" style="fill:#ffffff;opacity:0.8;stroke:#cccccc;stroke-linejoin:miter;"/>
    </g>
    <g id="line2d_6">
     <path d="M 445.987813 58.225937 
L 489.987813 58.225937 
" style="fill:none;stroke:#4da07e;stroke-linecap:round;stroke-width:1.5;"/>
    </g>
    <g id="line2d_7"/>
    <g id="text_14">
     <!-- Baseline -->
     <defs>
      <path d="M 7.328125 0 
L 7.328125 71.578125 
L 34.1875 71.578125 
Q 42.390625 71.578125 47.34375 69.40625 
Q 52.296875 67.234375 55.09375 62.71875 
Q 57.90625 58.203125 57.90625 53.265625 
Q 57.90625 48.6875 55.421875 44.625 
Q 52.9375 40.578125 47.90625 38.09375 
Q 54.390625 36.1875 57.875 31.59375 
Q 61.375 27 61.375 20.75 
Q 61.375 15.71875 59.25 11.390625 
Q 57.125 7.078125 54 4.734375 
Q 50.875 2.390625 46.15625 1.1875 
Q 41.453125 0 34.625 0 
z
M 16.796875 41.5 
L 32.28125 41.5 
Q 38.578125 41.5 41.3125 42.328125 
Q 44.921875 43.40625 46.75 45.890625 
Q 48.578125 48.390625 48.578125 52.15625 
Q 48.578125 55.71875 46.875 58.421875 
Q 45.171875 61.140625 41.984375 62.140625 
Q 38.8125 63.140625 31.109375 63.140625 
L 16.796875 63.140625 
z
M 16.796875 8.453125 
L 34.625 8.453125 
Q 39.203125 8.453125 41.0625 8.796875 
Q 44.34375 9.375 46.53125 10.734375 
Q 48.734375 12.109375 50.140625 14.71875 
Q 51.5625 17.328125 51.5625 20.75 
Q 51.5625 24.75 49.515625 27.703125 
Q 47.46875 30.671875 43.828125 31.859375 
Q 40.1875 33.0625 33.34375 33.0625 
L 16.796875 33.0625 
z
" id="ArialMT-66"/>
      <path d="M 3.078125 15.484375 
L 11.765625 16.84375 
Q 12.5 11.625 15.84375 8.84375 
Q 19.1875 6.0625 25.203125 6.0625 
Q 31.25 6.0625 34.171875 8.515625 
Q 37.109375 10.984375 37.109375 14.3125 
Q 37.109375 17.28125 34.515625 19 
Q 32.71875 20.171875 25.53125 21.96875 
Q 15.875 24.421875 12.140625 26.203125 
Q 8.40625 27.984375 6.46875 31.125 
Q 4.546875 34.28125 4.546875 38.09375 
Q 4.546875 41.546875 6.125 44.5 
Q 7.71875 47.46875 10.453125 49.421875 
Q 12.5 50.921875 16.03125 51.96875 
Q 19.578125 53.03125 23.640625 53.03125 
Q 29.734375 53.03125 34.34375 51.265625 
Q 38.96875 49.515625 41.15625 46.5 
Q 43.359375 43.5 44.1875 38.484375 
L 35.59375 37.3125 
Q 35.015625 41.3125 32.203125 43.546875 
Q 29.390625 45.796875 24.265625 45.796875 
Q 18.21875 45.796875 15.625 43.796875 
Q 13.03125 41.796875 13.03125 39.109375 
Q 13.03125 37.40625 14.109375 36.03125 
Q 15.1875 34.625 17.484375 33.6875 
Q 18.796875 33.203125 25.25 31.453125 
Q 34.578125 28.953125 38.25 27.359375 
Q 41.9375 25.78125 44.03125 22.75 
Q 46.140625 19.734375 46.140625 15.234375 
Q 46.140625 10.84375 43.578125 6.953125 
Q 41.015625 3.078125 36.171875 0.953125 
Q 31.34375 -1.171875 25.25 -1.171875 
Q 15.140625 -1.171875 9.84375 3.03125 
Q 4.546875 7.234375 3.078125 15.484375 
z
" id="ArialMT-115"/>
      <path d="M 6.640625 61.46875 
L 6.640625 71.578125 
L 15.4375 71.578125 
L 15.4375 61.46875 
z
M 6.640625 0 
L 6.640625 51.859375 
L 15.4375 51.859375 
L 15.4375 0 
z
" id="ArialMT-105"/>
     </defs>
     <g style="fill:#262626;" transform="translate(507.587813 65.925937)scale(0.22 -0.22)">
      <use xlink:href="#ArialMT-66"/>
      <use x="66.699219" xlink:href="#ArialMT-97"/>
      <use x="122.314453" xlink:href="#ArialMT-115"/>
      <use x="172.314453" xlink:href="#ArialMT-101"/>
      <use x="227.929688" xlink:href="#ArialMT-108"/>
      <use x="250.146484" xlink:href="#ArialMT-105"/>
      <use x="272.363281" xlink:href="#ArialMT-110"/>
      <use x="327.978516" xlink:href="#ArialMT-101"/>
     </g>
    </g>
    <g id="line2d_8">
     <path d="M 445.987813 89.6275 
L 489.987813 89.6275 
" style="fill:none;stroke:#d4743e;stroke-linecap:round;stroke-width:1.5;"/>
    </g>
    <g id="line2d_9"/>
    <g id="text_15">
     <!-- Home Only4Weeks -->
     <defs>
      <path d="M 8.015625 0 
L 8.015625 71.578125 
L 17.484375 71.578125 
L 17.484375 42.1875 
L 54.6875 42.1875 
L 54.6875 71.578125 
L 64.15625 71.578125 
L 64.15625 0 
L 54.6875 0 
L 54.6875 33.734375 
L 17.484375 33.734375 
L 17.484375 0 
z
" id="ArialMT-72"/>
      <path d="M 3.328125 25.921875 
Q 3.328125 40.328125 11.328125 47.265625 
Q 18.015625 53.03125 27.640625 53.03125 
Q 38.328125 53.03125 45.109375 46.015625 
Q 51.90625 39.015625 51.90625 26.65625 
Q 51.90625 16.65625 48.90625 10.90625 
Q 45.90625 5.171875 40.15625 2 
Q 34.421875 -1.171875 27.640625 -1.171875 
Q 16.75 -1.171875 10.03125 5.8125 
Q 3.328125 12.796875 3.328125 25.921875 
z
M 12.359375 25.921875 
Q 12.359375 15.96875 16.703125 11.015625 
Q 21.046875 6.0625 27.640625 6.0625 
Q 34.1875 6.0625 38.53125 11.03125 
Q 42.875 16.015625 42.875 26.21875 
Q 42.875 35.84375 38.5 40.796875 
Q 34.125 45.75 27.640625 45.75 
Q 21.046875 45.75 16.703125 40.8125 
Q 12.359375 35.890625 12.359375 25.921875 
z
" id="ArialMT-111"/>
      <path d="M 6.59375 0 
L 6.59375 51.859375 
L 14.453125 51.859375 
L 14.453125 44.578125 
Q 16.890625 48.390625 20.9375 50.703125 
Q 25 53.03125 30.171875 53.03125 
Q 35.9375 53.03125 39.625 50.640625 
Q 43.3125 48.25 44.828125 43.953125 
Q 50.984375 53.03125 60.84375 53.03125 
Q 68.5625 53.03125 72.703125 48.75 
Q 76.859375 44.484375 76.859375 35.59375 
L 76.859375 0 
L 68.109375 0 
L 68.109375 32.671875 
Q 68.109375 37.9375 67.25 40.25 
Q 66.40625 42.578125 64.15625 43.984375 
Q 61.921875 45.40625 58.890625 45.40625 
Q 53.421875 45.40625 49.796875 41.765625 
Q 46.1875 38.140625 46.1875 30.125 
L 46.1875 0 
L 37.40625 0 
L 37.40625 33.6875 
Q 37.40625 39.546875 35.25 42.46875 
Q 33.109375 45.40625 28.21875 45.40625 
Q 24.515625 45.40625 21.359375 43.453125 
Q 18.21875 41.5 16.796875 37.734375 
Q 15.375 33.984375 15.375 26.90625 
L 15.375 0 
z
" id="ArialMT-109"/>
      <path id="ArialMT-32"/>
      <path d="M 4.828125 34.859375 
Q 4.828125 52.6875 14.390625 62.765625 
Q 23.96875 72.859375 39.109375 72.859375 
Q 49.03125 72.859375 56.984375 68.109375 
Q 64.9375 63.375 69.109375 54.90625 
Q 73.296875 46.4375 73.296875 35.6875 
Q 73.296875 24.8125 68.890625 16.21875 
Q 64.5 7.625 56.4375 3.203125 
Q 48.390625 -1.21875 39.0625 -1.21875 
Q 28.953125 -1.21875 20.984375 3.65625 
Q 13.03125 8.546875 8.921875 16.984375 
Q 4.828125 25.4375 4.828125 34.859375 
z
M 14.59375 34.71875 
Q 14.59375 21.78125 21.546875 14.328125 
Q 28.515625 6.890625 39.015625 6.890625 
Q 49.703125 6.890625 56.609375 14.40625 
Q 63.53125 21.921875 63.53125 35.75 
Q 63.53125 44.484375 60.578125 51 
Q 57.625 57.515625 51.921875 61.109375 
Q 46.234375 64.703125 39.15625 64.703125 
Q 29.109375 64.703125 21.84375 57.78125 
Q 14.59375 50.875 14.59375 34.71875 
z
" id="ArialMT-79"/>
      <path d="M 6.203125 -19.96875 
L 5.21875 -11.71875 
Q 8.109375 -12.5 10.25 -12.5 
Q 13.1875 -12.5 14.9375 -11.515625 
Q 16.703125 -10.546875 17.828125 -8.796875 
Q 18.65625 -7.46875 20.515625 -2.25 
Q 20.75 -1.515625 21.296875 -0.09375 
L 1.609375 51.859375 
L 11.078125 51.859375 
L 21.875 21.828125 
Q 23.96875 16.109375 25.640625 9.8125 
Q 27.15625 15.875 29.25 21.625 
L 40.328125 51.859375 
L 49.125 51.859375 
L 29.390625 -0.875 
Q 26.21875 -9.421875 24.46875 -12.640625 
Q 22.125 -17 19.09375 -19.015625 
Q 16.0625 -21.046875 11.859375 -21.046875 
Q 9.328125 -21.046875 6.203125 -19.96875 
z
" id="ArialMT-121"/>
      <path d="M 32.328125 0 
L 32.328125 17.140625 
L 1.265625 17.140625 
L 1.265625 25.203125 
L 33.9375 71.578125 
L 41.109375 71.578125 
L 41.109375 25.203125 
L 50.78125 25.203125 
L 50.78125 17.140625 
L 41.109375 17.140625 
L 41.109375 0 
z
M 32.328125 25.203125 
L 32.328125 57.46875 
L 9.90625 25.203125 
z
" id="ArialMT-52"/>
      <path d="M 20.21875 0 
L 1.21875 71.578125 
L 10.9375 71.578125 
L 21.828125 24.65625 
Q 23.578125 17.28125 24.859375 10.015625 
Q 27.59375 21.484375 28.078125 23.25 
L 41.703125 71.578125 
L 53.125 71.578125 
L 63.375 35.359375 
Q 67.234375 21.875 68.953125 10.015625 
Q 70.3125 16.796875 72.515625 25.59375 
L 83.734375 71.578125 
L 93.265625 71.578125 
L 73.640625 0 
L 64.5 0 
L 49.421875 54.546875 
Q 47.515625 61.375 47.171875 62.9375 
Q 46.046875 58.015625 45.0625 54.546875 
L 29.890625 0 
z
" id="ArialMT-87"/>
      <path d="M 6.640625 0 
L 6.640625 71.578125 
L 15.4375 71.578125 
L 15.4375 30.765625 
L 36.234375 51.859375 
L 47.609375 51.859375 
L 27.78125 32.625 
L 49.609375 0 
L 38.765625 0 
L 21.625 26.515625 
L 15.4375 20.5625 
L 15.4375 0 
z
" id="ArialMT-107"/>
     </defs>
     <g style="fill:#262626;" transform="translate(507.587813 97.3275)scale(0.22 -0.22)">
      <use xlink:href="#ArialMT-72"/>
      <use x="72.216797" xlink:href="#ArialMT-111"/>
      <use x="127.832031" xlink:href="#ArialMT-109"/>
      <use x="211.132812" xlink:href="#ArialMT-101"/>
      <use x="266.748047" xlink:href="#ArialMT-32"/>
      <use x="294.53125" xlink:href="#ArialMT-79"/>
      <use x="372.314453" xlink:href="#ArialMT-110"/>
      <use x="427.929688" xlink:href="#ArialMT-108"/>
      <use x="450.146484" xlink:href="#ArialMT-121"/>
      <use x="500.146484" xlink:href="#ArialMT-52"/>
      <use x="555.761719" xlink:href="#ArialMT-87"/>
      <use x="650.130859" xlink:href="#ArialMT-101"/>
      <use x="705.746094" xlink:href="#ArialMT-101"/>
      <use x="761.361328" xlink:href="#ArialMT-107"/>
      <use x="811.361328" xlink:href="#ArialMT-115"/>
     </g>
    </g>
    <g id="line2d_10">
     <path d="M 445.987813 121.286875 
L 489.987813 121.286875 
" style="fill:none;stroke:#716dad;stroke-linecap:round;stroke-width:1.5;"/>
    </g>
    <g id="line2d_11"/>
    <g id="text_16">
     <!-- Home Only8Weeks -->
     <defs>
      <path d="M 17.671875 38.8125 
Q 12.203125 40.828125 9.5625 44.53125 
Q 6.9375 48.25 6.9375 53.421875 
Q 6.9375 61.234375 12.546875 66.546875 
Q 18.171875 71.875 27.484375 71.875 
Q 36.859375 71.875 42.578125 66.421875 
Q 48.296875 60.984375 48.296875 53.171875 
Q 48.296875 48.1875 45.671875 44.5 
Q 43.0625 40.828125 37.75 38.8125 
Q 44.34375 36.671875 47.78125 31.875 
Q 51.21875 27.09375 51.21875 20.453125 
Q 51.21875 11.28125 44.71875 5.03125 
Q 38.234375 -1.21875 27.640625 -1.21875 
Q 17.046875 -1.21875 10.546875 5.046875 
Q 4.046875 11.328125 4.046875 20.703125 
Q 4.046875 27.6875 7.59375 32.390625 
Q 11.140625 37.109375 17.671875 38.8125 
z
M 15.921875 53.71875 
Q 15.921875 48.640625 19.1875 45.40625 
Q 22.46875 42.1875 27.6875 42.1875 
Q 32.765625 42.1875 36.015625 45.375 
Q 39.265625 48.578125 39.265625 53.21875 
Q 39.265625 58.0625 35.90625 61.359375 
Q 32.5625 64.65625 27.59375 64.65625 
Q 22.5625 64.65625 19.234375 61.421875 
Q 15.921875 58.203125 15.921875 53.71875 
z
M 13.09375 20.65625 
Q 13.09375 16.890625 14.875 13.375 
Q 16.65625 9.859375 20.171875 7.921875 
Q 23.6875 6 27.734375 6 
Q 34.03125 6 38.125 10.046875 
Q 42.234375 14.109375 42.234375 20.359375 
Q 42.234375 26.703125 38.015625 30.859375 
Q 33.796875 35.015625 27.4375 35.015625 
Q 21.234375 35.015625 17.15625 30.90625 
Q 13.09375 26.8125 13.09375 20.65625 
z
" id="ArialMT-56"/>
     </defs>
     <g style="fill:#262626;" transform="translate(507.587813 128.986875)scale(0.22 -0.22)">
      <use xlink:href="#ArialMT-72"/>
      <use x="72.216797" xlink:href="#ArialMT-111"/>
      <use x="127.832031" xlink:href="#ArialMT-109"/>
      <use x="211.132812" xlink:href="#ArialMT-101"/>
      <use x="266.748047" xlink:href="#ArialMT-32"/>
      <use x="294.53125" xlink:href="#ArialMT-79"/>
      <use x="372.314453" xlink:href="#ArialMT-110"/>
      <use x="427.929688" xlink:href="#ArialMT-108"/>
      <use x="450.146484" xlink:href="#ArialMT-121"/>
      <use x="500.146484" xlink:href="#ArialMT-56"/>
      <use x="555.761719" xlink:href="#ArialMT-87"/>
      <use x="650.130859" xlink:href="#ArialMT-101"/>
      <use x="705.746094" xlink:href="#ArialMT-101"/>
      <use x="761.361328" xlink:href="#ArialMT-107"/>
      <use x="811.361328" xlink:href="#ArialMT-115"/>
     </g>
    </g>
    <g id="line2d_12">
     <path d="M 445.987813 152.94625 
L 489.987813 152.94625 
" style="fill:none;stroke:#df3793;stroke-linecap:round;stroke-width:1.5;"/>
    </g>
    <g id="line2d_13"/>
    <g id="text_17">
     <!-- Home Only12Weeks -->
     <g style="fill:#262626;" transform="translate(507.587813 160.64625)scale(0.22 -0.22)">
      <use xlink:href="#ArialMT-72"/>
      <use x="72.216797" xlink:href="#ArialMT-111"/>
      <use x="127.832031" xlink:href="#ArialMT-109"/>
      <use x="211.132812" xlink:href="#ArialMT-101"/>
      <use x="266.748047" xlink:href="#ArialMT-32"/>
      <use x="294.53125" xlink:href="#ArialMT-79"/>
      <use x="372.314453" xlink:href="#ArialMT-110"/>
      <use x="427.929688" xlink:href="#ArialMT-108"/>
      <use x="450.146484" xlink:href="#ArialMT-121"/>
      <use x="500.146484" xlink:href="#ArialMT-49"/>
      <use x="555.761719" xlink:href="#ArialMT-50"/>
      <use x="611.376953" xlink:href="#ArialMT-87"/>
      <use x="705.746094" xlink:href="#ArialMT-101"/>
      <use x="761.361328" xlink:href="#ArialMT-101"/>
      <use x="816.976562" xlink:href="#ArialMT-107"/>
      <use x="866.976562" xlink:href="#ArialMT-115"/>
     </g>
    </g>
    <g id="line2d_14">
     <path d="M 445.987813 184.605625 
L 489.987813 184.605625 
" style="fill:none;stroke:#bed4e7;stroke-linecap:round;stroke-width:1.5;"/>
    </g>
    <g id="line2d_15"/>
    <g id="text_18">
     <!-- Home Only Forever -->
     <defs>
      <path d="M 8.203125 0 
L 8.203125 71.578125 
L 56.5 71.578125 
L 56.5 63.140625 
L 17.671875 63.140625 
L 17.671875 40.96875 
L 51.265625 40.96875 
L 51.265625 32.515625 
L 17.671875 32.515625 
L 17.671875 0 
z
" id="ArialMT-70"/>
     </defs>
     <g style="fill:#262626;" transform="translate(507.587813 192.305625)scale(0.22 -0.22)">
      <use xlink:href="#ArialMT-72"/>
      <use x="72.216797" xlink:href="#ArialMT-111"/>
      <use x="127.832031" xlink:href="#ArialMT-109"/>
      <use x="211.132812" xlink:href="#ArialMT-101"/>
      <use x="266.748047" xlink:href="#ArialMT-32"/>
      <use x="294.53125" xlink:href="#ArialMT-79"/>
      <use x="372.314453" xlink:href="#ArialMT-110"/>
      <use x="427.929688" xlink:href="#ArialMT-108"/>
      <use x="450.146484" xlink:href="#ArialMT-121"/>
      <use x="500.146484" xlink:href="#ArialMT-32"/>
      <use x="527.929688" xlink:href="#ArialMT-70"/>
      <use x="589.013672" xlink:href="#ArialMT-111"/>
      <use x="644.628906" xlink:href="#ArialMT-114"/>
      <use x="677.929688" xlink:href="#ArialMT-101"/>
      <use x="733.544922" xlink:href="#ArialMT-118"/>
      <use x="783.544922" xlink:href="#ArialMT-101"/>
      <use x="839.160156" xlink:href="#ArialMT-114"/>
     </g>
    </g>
   </g>
  </g>
 </g>
 <defs>
  <clipPath id="p6ea5d324b6">
   <rect height="326.16" width="669.6" x="59.514063" y="30.37875"/>
  </clipPath>
 </defs>
</svg>
