<?xml version="1.0" encoding="utf-8" standalone="no"?>
<!DOCTYPE svg PUBLIC "-//W3C//DTD SVG 1.1//EN"
  "http://www.w3.org/Graphics/SVG/1.1/DTD/svg11.dtd">
<!-- Created with matplotlib (https://matplotlib.org/) -->
<svg height="393.358437pt" version="1.1" viewBox="0 0 742.43625 393.358437" width="742.43625pt" xmlns="http://www.w3.org/2000/svg" xmlns:xlink="http://www.w3.org/1999/xlink">
 <defs>
  <style type="text/css">
*{stroke-linecap:butt;stroke-linejoin:round;}
  </style>
 </defs>
 <g id="figure_1">
  <g id="patch_1">
   <path d="M 0 393.358437 
L 742.43625 393.358437 
L 742.43625 0 
L 0 0 
z
" style="fill:#ffffff;"/>
  </g>
  <g id="axes_1">
   <g id="patch_2">
    <path d="M 65.63625 356.53875 
L 735.23625 356.53875 
L 735.23625 30.37875 
L 65.63625 30.37875 
z
" style="fill:#ffffff;"/>
   </g>
   <g id="matplotlib.axis_1">
    <g id="xtick_1">
     <g id="text_1">
      <!-- 0 -->
      <defs>
       <path d="M 4.15625 35.296875 
Q 4.15625 48 6.765625 55.734375 
Q 9.375 63.484375 14.515625 67.671875 
Q 19.671875 71.875 27.484375 71.875 
Q 33.25 71.875 37.59375 69.546875 
Q 41.9375 67.234375 44.765625 62.859375 
Q 47.609375 58.5 49.21875 52.21875 
Q 50.828125 45.953125 50.828125 35.296875 
Q 50.828125 22.703125 48.234375 14.96875 
Q 45.65625 7.234375 40.5 3 
Q 35.359375 -1.21875 27.484375 -1.21875 
Q 17.140625 -1.21875 11.234375 6.203125 
Q 4.15625 15.140625 4.15625 35.296875 
z
M 13.1875 35.296875 
Q 13.1875 17.671875 17.3125 11.828125 
Q 21.4375 6 27.484375 6 
Q 33.546875 6 37.671875 11.859375 
Q 41.796875 17.71875 41.796875 35.296875 
Q 41.796875 52.984375 37.671875 58.78125 
Q 33.546875 64.59375 27.390625 64.59375 
Q 21.34375 64.59375 17.71875 59.46875 
Q 13.1875 52.9375 13.1875 35.296875 
z
" id="ArialMT-48"/>
      </defs>
      <g style="fill:#262626;" transform="translate(89.955582 381.785937)scale(0.22 -0.22)">
       <use xlink:href="#ArialMT-48"/>
      </g>
     </g>
    </g>
    <g id="xtick_2">
     <g id="text_2">
      <!-- 50 -->
      <defs>
       <path d="M 4.15625 18.75 
L 13.375 19.53125 
Q 14.40625 12.796875 18.140625 9.390625 
Q 21.875 6 27.15625 6 
Q 33.5 6 37.890625 10.78125 
Q 42.28125 15.578125 42.28125 23.484375 
Q 42.28125 31 38.0625 35.34375 
Q 33.84375 39.703125 27 39.703125 
Q 22.75 39.703125 19.328125 37.765625 
Q 15.921875 35.84375 13.96875 32.765625 
L 5.71875 33.84375 
L 12.640625 70.609375 
L 48.25 70.609375 
L 48.25 62.203125 
L 19.671875 62.203125 
L 15.828125 42.96875 
Q 22.265625 47.46875 29.34375 47.46875 
Q 38.71875 47.46875 45.15625 40.96875 
Q 51.609375 34.46875 51.609375 24.265625 
Q 51.609375 14.546875 45.953125 7.46875 
Q 39.0625 -1.21875 27.15625 -1.21875 
Q 17.390625 -1.21875 11.203125 4.25 
Q 5.03125 9.71875 4.15625 18.75 
z
" id="ArialMT-53"/>
      </defs>
      <g style="fill:#262626;" transform="translate(167.454935 381.785937)scale(0.22 -0.22)">
       <use xlink:href="#ArialMT-53"/>
       <use x="55.615234" xlink:href="#ArialMT-48"/>
      </g>
     </g>
    </g>
    <g id="xtick_3">
     <g id="text_3">
      <!-- 100 -->
      <defs>
       <path d="M 37.25 0 
L 28.46875 0 
L 28.46875 56 
Q 25.296875 52.984375 20.140625 49.953125 
Q 14.984375 46.921875 10.890625 45.40625 
L 10.890625 53.90625 
Q 18.265625 57.375 23.78125 62.296875 
Q 29.296875 67.234375 31.59375 71.875 
L 37.25 71.875 
z
" id="ArialMT-49"/>
      </defs>
      <g style="fill:#262626;" transform="translate(244.954287 381.785937)scale(0.22 -0.22)">
       <use xlink:href="#ArialMT-49"/>
       <use x="55.615234" xlink:href="#ArialMT-48"/>
       <use x="111.230469" xlink:href="#ArialMT-48"/>
      </g>
     </g>
    </g>
    <g id="xtick_4">
     <g id="text_4">
      <!-- 150 -->
      <g style="fill:#262626;" transform="translate(328.570671 381.785937)scale(0.22 -0.22)">
       <use xlink:href="#ArialMT-49"/>
       <use x="55.615234" xlink:href="#ArialMT-53"/>
       <use x="111.230469" xlink:href="#ArialMT-48"/>
      </g>
     </g>
    </g>
    <g id="xtick_5">
     <g id="text_5">
      <!-- 200 -->
      <defs>
       <path d="M 50.34375 8.453125 
L 50.34375 0 
L 3.03125 0 
Q 2.9375 3.171875 4.046875 6.109375 
Q 5.859375 10.9375 9.828125 15.625 
Q 13.8125 20.3125 21.34375 26.46875 
Q 33.015625 36.03125 37.109375 41.625 
Q 41.21875 47.21875 41.21875 52.203125 
Q 41.21875 57.421875 37.46875 61 
Q 33.734375 64.59375 27.734375 64.59375 
Q 21.390625 64.59375 17.578125 60.78125 
Q 13.765625 56.984375 13.71875 50.25 
L 4.6875 51.171875 
Q 5.609375 61.28125 11.65625 66.578125 
Q 17.71875 71.875 27.9375 71.875 
Q 38.234375 71.875 44.234375 66.15625 
Q 50.25 60.453125 50.25 52 
Q 50.25 47.703125 48.484375 43.546875 
Q 46.734375 39.40625 42.65625 34.8125 
Q 38.578125 30.21875 29.109375 22.21875 
Q 21.1875 15.578125 18.9375 13.203125 
Q 16.703125 10.84375 15.234375 8.453125 
z
" id="ArialMT-50"/>
      </defs>
      <g style="fill:#262626;" transform="translate(412.187054 381.785937)scale(0.22 -0.22)">
       <use xlink:href="#ArialMT-50"/>
       <use x="55.615234" xlink:href="#ArialMT-48"/>
       <use x="111.230469" xlink:href="#ArialMT-48"/>
      </g>
     </g>
    </g>
    <g id="xtick_6">
     <g id="text_6">
      <!-- 250 -->
      <g style="fill:#262626;" transform="translate(495.803438 381.785937)scale(0.22 -0.22)">
       <use xlink:href="#ArialMT-50"/>
       <use x="55.615234" xlink:href="#ArialMT-53"/>
       <use x="111.230469" xlink:href="#ArialMT-48"/>
      </g>
     </g>
    </g>
    <g id="xtick_7">
     <g id="text_7">
      <!-- 300 -->
      <defs>
       <path d="M 4.203125 18.890625 
L 12.984375 20.0625 
Q 14.5 12.59375 18.140625 9.296875 
Q 21.78125 6 27 6 
Q 33.203125 6 37.46875 10.296875 
Q 41.75 14.59375 41.75 20.953125 
Q 41.75 27 37.796875 30.921875 
Q 33.84375 34.859375 27.734375 34.859375 
Q 25.25 34.859375 21.53125 33.890625 
L 22.515625 41.609375 
Q 23.390625 41.5 23.921875 41.5 
Q 29.546875 41.5 34.03125 44.421875 
Q 38.53125 47.359375 38.53125 53.46875 
Q 38.53125 58.296875 35.25 61.46875 
Q 31.984375 64.65625 26.8125 64.65625 
Q 21.6875 64.65625 18.265625 61.421875 
Q 14.84375 58.203125 13.875 51.765625 
L 5.078125 53.328125 
Q 6.6875 62.15625 12.390625 67.015625 
Q 18.109375 71.875 26.609375 71.875 
Q 32.46875 71.875 37.390625 69.359375 
Q 42.328125 66.84375 44.9375 62.5 
Q 47.5625 58.15625 47.5625 53.265625 
Q 47.5625 48.640625 45.0625 44.828125 
Q 42.578125 41.015625 37.703125 38.765625 
Q 44.046875 37.3125 47.5625 32.6875 
Q 51.078125 28.078125 51.078125 21.140625 
Q 51.078125 11.765625 44.234375 5.25 
Q 37.40625 -1.265625 26.953125 -1.265625 
Q 17.53125 -1.265625 11.296875 4.34375 
Q 5.078125 9.96875 4.203125 18.890625 
z
" id="ArialMT-51"/>
      </defs>
      <g style="fill:#262626;" transform="translate(579.419822 381.785937)scale(0.22 -0.22)">
       <use xlink:href="#ArialMT-51"/>
       <use x="55.615234" xlink:href="#ArialMT-48"/>
       <use x="111.230469" xlink:href="#ArialMT-48"/>
      </g>
     </g>
    </g>
    <g id="xtick_8">
     <g id="text_8">
      <!-- 350 -->
      <g style="fill:#262626;" transform="translate(663.036205 381.785937)scale(0.22 -0.22)">
       <use xlink:href="#ArialMT-51"/>
       <use x="55.615234" xlink:href="#ArialMT-53"/>
       <use x="111.230469" xlink:href="#ArialMT-48"/>
      </g>
     </g>
    </g>
   </g>
   <g id="matplotlib.axis_2">
    <g id="ytick_1">
     <g id="text_9">
      <!-- 0 -->
      <g style="fill:#262626;" transform="translate(43.902188 349.586889)scale(0.22 -0.22)">
       <use xlink:href="#ArialMT-48"/>
      </g>
     </g>
    </g>
    <g id="ytick_2">
     <g id="text_10">
      <!-- 2000 -->
      <g style="fill:#262626;" transform="translate(7.2 277.578146)scale(0.22 -0.22)">
       <use xlink:href="#ArialMT-50"/>
       <use x="55.615234" xlink:href="#ArialMT-48"/>
       <use x="111.230469" xlink:href="#ArialMT-48"/>
       <use x="166.845703" xlink:href="#ArialMT-48"/>
      </g>
     </g>
    </g>
    <g id="ytick_3">
     <g id="text_11">
      <!-- 4000 -->
      <defs>
       <path d="M 32.328125 0 
L 32.328125 17.140625 
L 1.265625 17.140625 
L 1.265625 25.203125 
L 33.9375 71.578125 
L 41.109375 71.578125 
L 41.109375 25.203125 
L 50.78125 25.203125 
L 50.78125 17.140625 
L 41.109375 17.140625 
L 41.109375 0 
z
M 32.328125 25.203125 
L 32.328125 57.46875 
L 9.90625 25.203125 
z
" id="ArialMT-52"/>
      </defs>
      <g style="fill:#262626;" transform="translate(7.2 205.569404)scale(0.22 -0.22)">
       <use xlink:href="#ArialMT-52"/>
       <use x="55.615234" xlink:href="#ArialMT-48"/>
       <use x="111.230469" xlink:href="#ArialMT-48"/>
       <use x="166.845703" xlink:href="#ArialMT-48"/>
      </g>
     </g>
    </g>
    <g id="ytick_4">
     <g id="text_12">
      <!-- 6000 -->
      <defs>
       <path d="M 49.75 54.046875 
L 41.015625 53.375 
Q 39.84375 58.546875 37.703125 60.890625 
Q 34.125 64.65625 28.90625 64.65625 
Q 24.703125 64.65625 21.53125 62.3125 
Q 17.390625 59.28125 14.984375 53.46875 
Q 12.59375 47.65625 12.5 36.921875 
Q 15.671875 41.75 20.265625 44.09375 
Q 24.859375 46.4375 29.890625 46.4375 
Q 38.671875 46.4375 44.84375 39.96875 
Q 51.03125 33.5 51.03125 23.25 
Q 51.03125 16.5 48.125 10.71875 
Q 45.21875 4.9375 40.140625 1.859375 
Q 35.0625 -1.21875 28.609375 -1.21875 
Q 17.625 -1.21875 10.6875 6.859375 
Q 3.765625 14.9375 3.765625 33.5 
Q 3.765625 54.25 11.421875 63.671875 
Q 18.109375 71.875 29.4375 71.875 
Q 37.890625 71.875 43.28125 67.140625 
Q 48.6875 62.40625 49.75 54.046875 
z
M 13.875 23.1875 
Q 13.875 18.65625 15.796875 14.5 
Q 17.71875 10.359375 21.1875 8.171875 
Q 24.65625 6 28.46875 6 
Q 34.03125 6 38.03125 10.484375 
Q 42.046875 14.984375 42.046875 22.703125 
Q 42.046875 30.125 38.078125 34.390625 
Q 34.125 38.671875 28.125 38.671875 
Q 22.171875 38.671875 18.015625 34.390625 
Q 13.875 30.125 13.875 23.1875 
z
" id="ArialMT-54"/>
      </defs>
      <g style="fill:#262626;" transform="translate(7.2 133.560661)scale(0.22 -0.22)">
       <use xlink:href="#ArialMT-54"/>
       <use x="55.615234" xlink:href="#ArialMT-48"/>
       <use x="111.230469" xlink:href="#ArialMT-48"/>
       <use x="166.845703" xlink:href="#ArialMT-48"/>
      </g>
     </g>
    </g>
    <g id="ytick_5">
     <g id="text_13">
      <!-- 8000 -->
      <defs>
       <path d="M 17.671875 38.8125 
Q 12.203125 40.828125 9.5625 44.53125 
Q 6.9375 48.25 6.9375 53.421875 
Q 6.9375 61.234375 12.546875 66.546875 
Q 18.171875 71.875 27.484375 71.875 
Q 36.859375 71.875 42.578125 66.421875 
Q 48.296875 60.984375 48.296875 53.171875 
Q 48.296875 48.1875 45.671875 44.5 
Q 43.0625 40.828125 37.75 38.8125 
Q 44.34375 36.671875 47.78125 31.875 
Q 51.21875 27.09375 51.21875 20.453125 
Q 51.21875 11.28125 44.71875 5.03125 
Q 38.234375 -1.21875 27.640625 -1.21875 
Q 17.046875 -1.21875 10.546875 5.046875 
Q 4.046875 11.328125 4.046875 20.703125 
Q 4.046875 27.6875 7.59375 32.390625 
Q 11.140625 37.109375 17.671875 38.8125 
z
M 15.921875 53.71875 
Q 15.921875 48.640625 19.1875 45.40625 
Q 22.46875 42.1875 27.6875 42.1875 
Q 32.765625 42.1875 36.015625 45.375 
Q 39.265625 48.578125 39.265625 53.21875 
Q 39.265625 58.0625 35.90625 61.359375 
Q 32.5625 64.65625 27.59375 64.65625 
Q 22.5625 64.65625 19.234375 61.421875 
Q 15.921875 58.203125 15.921875 53.71875 
z
M 13.09375 20.65625 
Q 13.09375 16.890625 14.875 13.375 
Q 16.65625 9.859375 20.171875 7.921875 
Q 23.6875 6 27.734375 6 
Q 34.03125 6 38.125 10.046875 
Q 42.234375 14.109375 42.234375 20.359375 
Q 42.234375 26.703125 38.015625 30.859375 
Q 33.796875 35.015625 27.4375 35.015625 
Q 21.234375 35.015625 17.15625 30.90625 
Q 13.09375 26.8125 13.09375 20.65625 
z
" id="ArialMT-56"/>
      </defs>
      <g style="fill:#262626;" transform="translate(7.2 61.551918)scale(0.22 -0.22)">
       <use xlink:href="#ArialMT-56"/>
       <use x="55.615234" xlink:href="#ArialMT-48"/>
       <use x="111.230469" xlink:href="#ArialMT-48"/>
       <use x="166.845703" xlink:href="#ArialMT-48"/>
      </g>
     </g>
    </g>
   </g>
   <g id="line2d_1">
    <path clip-path="url(#pd3ba3568d8)" d="M 96.072614 341.713295 
L 152.931754 341.602795 
L 172.999687 341.145474 
L 181.361325 340.587079 
L 186.378308 340.081446 
L 194.739946 338.48534 
L 199.756929 336.844719 
L 203.101585 335.337118 
L 204.773912 334.470525 
L 206.44624 333.416579 
L 209.790895 330.761028 
L 211.463223 329.243476 
L 213.135551 327.484761 
L 214.807878 325.441807 
L 216.480206 323.11527 
L 218.152534 320.4571 
L 219.824861 317.544281 
L 221.497189 314.117843 
L 223.169517 310.241154 
L 224.841844 305.933722 
L 226.514172 301.050482 
L 228.1865 295.654802 
L 229.858827 289.667733 
L 231.531155 282.84785 
L 233.203483 275.424403 
L 234.87581 267.154396 
L 238.220466 248.367053 
L 239.892793 237.884413 
L 243.237449 214.467301 
L 246.582104 188.431951 
L 253.271415 133.514941 
L 256.61607 107.9593 
L 259.960726 85.229282 
L 261.633053 75.608783 
L 264.977709 59.884954 
L 266.650036 54.353766 
L 268.322364 49.646097 
L 269.994692 46.818771 
L 271.667019 45.33657 
L 273.339347 45.204205 
L 275.011675 45.900987 
L 276.684002 47.462922 
L 278.35633 50.110618 
L 280.028658 53.834256 
L 283.373313 63.578479 
L 286.717968 74.891969 
L 290.062624 88.078996 
L 308.458228 168.509095 
L 311.802883 182.073971 
L 318.492194 207.466742 
L 320.164522 212.821574 
L 323.509177 224.265858 
L 325.181505 229.675416 
L 326.853832 234.597017 
L 328.52616 240.086702 
L 330.198488 245.085942 
L 336.887798 263.234502 
L 341.904781 275.942997 
L 350.26642 293.777206 
L 353.611075 299.947963 
L 355.283403 302.941824 
L 360.300386 310.551185 
L 363.645041 315.133821 
L 366.989697 318.950415 
L 368.662024 320.797767 
L 370.334352 322.43014 
L 375.351335 326.547076 
L 377.023663 327.825035 
L 380.368318 329.922322 
L 383.712973 331.752653 
L 388.729956 333.899169 
L 393.746939 335.483885 
L 400.43625 337.139169 
L 408.797888 338.325611 
L 412.142544 338.644676 
L 415.487199 338.979975 
L 443.916769 340.658564 
L 457.295391 341.170088 
L 482.380306 341.587346 
L 534.222464 341.707404 
L 704.799886 341.713295 
L 704.799886 341.713295 
" style="fill:none;stroke:#4da07e;stroke-linecap:round;stroke-width:1.5;"/>
   </g>
   <g id="line2d_2">
    <path clip-path="url(#pd3ba3568d8)" d="M 96.072614 341.713295 
L 152.931754 341.602795 
L 172.999687 341.145474 
L 181.361325 340.587079 
L 186.378308 340.081446 
L 194.739946 338.48534 
L 199.756929 336.844719 
L 203.101585 335.337118 
L 204.773912 334.470525 
L 206.44624 333.416579 
L 209.790895 330.761028 
L 211.463223 329.243476 
L 213.135551 327.484761 
L 214.807878 325.441807 
L 216.480206 341.713295 
L 218.152534 330.074457 
L 221.497189 326.610051 
L 223.169517 325.127194 
L 224.841844 324.479378 
L 226.514172 324.350155 
L 228.1865 323.863114 
L 229.858827 323.12797 
L 233.203483 320.708083 
L 234.87581 319.516011 
L 246.582104 309.231068 
L 249.926759 305.753046 
L 253.271415 302.095133 
L 259.960726 294.42738 
L 261.633053 292.276413 
L 263.305381 341.713295 
L 264.977709 246.332217 
L 266.650036 243.46365 
L 268.322364 241.091682 
L 269.994692 240.717237 
L 271.667019 241.551884 
L 273.339347 237.331124 
L 275.011675 224.823467 
L 278.35633 194.328943 
L 280.028658 180.838694 
L 283.373313 157.990451 
L 286.717968 137.719466 
L 288.390296 127.536775 
L 290.062624 118.103237 
L 291.734951 109.439276 
L 293.407279 101.363823 
L 295.079607 94.043152 
L 296.751934 87.959985 
L 298.424262 83.175986 
L 300.09659 79.708961 
L 301.768917 77.578157 
L 303.441245 76.410699 
L 305.113573 76.476816 
L 306.7859 77.32953 
L 308.458228 78.846296 
L 310.130556 81.045312 
L 311.802883 83.686593 
L 313.475211 87.495856 
L 315.147539 91.842696 
L 318.492194 101.706061 
L 325.181505 124.670042 
L 326.853832 130.809114 
L 328.52616 137.37605 
L 330.198488 143.064086 
L 331.870815 149.667942 
L 333.543143 155.270746 
L 336.887798 167.348445 
L 341.904781 184.117841 
L 346.921764 199.949684 
L 356.955731 227.278573 
L 361.972714 239.899348 
L 363.645041 243.544824 
L 365.317369 247.585169 
L 373.679007 266.019276 
L 377.023663 273.165293 
L 383.712973 286.365674 
L 385.385301 289.261342 
L 387.057629 292.516268 
L 388.729956 295.254302 
L 390.402284 298.220277 
L 393.746939 303.602472 
L 398.763922 310.892506 
L 402.108578 315.097293 
L 405.453233 318.796186 
L 407.125561 320.457493 
L 408.797888 321.958286 
L 410.470216 323.66306 
L 415.487199 327.45923 
L 417.159527 328.601289 
L 420.504182 330.569615 
L 425.521165 332.987014 
L 430.538148 334.931774 
L 435.555131 336.405596 
L 440.572114 337.572269 
L 445.589097 338.483245 
L 457.295391 339.939524 
L 465.657029 340.581842 
L 480.707978 341.218792 
L 495.758927 341.498971 
L 505.792893 341.591273 
L 532.550136 341.689598 
L 627.872813 341.712903 
L 704.799886 341.713295 
L 704.799886 341.713295 
" style="fill:none;stroke:#d4743e;stroke-linecap:round;stroke-width:1.5;"/>
   </g>
   <g id="line2d_3">
    <path clip-path="url(#pd3ba3568d8)" d="M 96.072614 341.713295 
L 152.931754 341.602795 
L 172.999687 341.145474 
L 181.361325 340.587079 
L 186.378308 340.081446 
L 194.739946 338.48534 
L 199.756929 336.844719 
L 203.101585 335.337118 
L 204.773912 334.470525 
L 206.44624 333.416579 
L 209.790895 330.761028 
L 211.463223 329.243476 
L 213.135551 327.484761 
L 214.807878 325.441807 
L 216.480206 341.713295 
L 218.152534 330.074457 
L 221.497189 326.610051 
L 223.169517 325.127194 
L 224.841844 324.479378 
L 226.514172 324.350155 
L 228.1865 323.863114 
L 229.858827 323.12797 
L 233.203483 320.708083 
L 234.87581 319.516011 
L 246.582104 309.231068 
L 249.926759 305.753046 
L 253.271415 302.095133 
L 259.960726 294.42738 
L 261.633053 292.276413 
L 263.305381 290.532623 
L 264.977709 288.292759 
L 268.322364 284.382029 
L 269.994692 282.064133 
L 280.028658 270.63268 
L 283.373313 267.085398 
L 288.390296 262.635127 
L 290.062624 261.14363 
L 291.734951 259.934668 
L 296.751934 256.775187 
L 298.424262 256.217577 
L 300.09659 255.229748 
L 301.768917 254.548676 
L 305.113573 253.829636 
L 308.458228 253.443407 
L 310.130556 341.713295 
L 311.802883 183.857693 
L 313.475211 186.087608 
L 315.147539 189.498204 
L 316.819866 194.453322 
L 318.492194 201.218216 
L 320.164522 201.880303 
L 321.836849 192.913644 
L 323.509177 180.670063 
L 325.181505 169.380925 
L 326.853832 160.352731 
L 328.52616 153.201084 
L 330.198488 147.425852 
L 333.543143 139.486299 
L 335.215471 136.674816 
L 336.887798 134.14469 
L 340.232454 129.711832 
L 341.904781 128.359115 
L 343.577109 127.474062 
L 345.249437 127.653822 
L 346.921764 129.030891 
L 348.594092 130.711706 
L 350.26642 133.410725 
L 351.938748 136.372117 
L 358.628058 151.339462 
L 360.300386 155.586406 
L 373.679007 193.092487 
L 380.368318 210.437168 
L 382.040646 214.435093 
L 383.712973 218.78429 
L 385.385301 222.521282 
L 387.057629 226.561627 
L 393.746939 241.206896 
L 395.419267 244.429353 
L 397.091595 248.18965 
L 403.780905 260.890028 
L 407.125561 267.086053 
L 413.814871 279.146077 
L 423.848837 295.778002 
L 428.86582 303.042113 
L 432.210476 307.793381 
L 435.555131 312.066903 
L 438.899786 315.936653 
L 445.589097 322.366641 
L 448.933752 325.295171 
L 455.623063 329.694905 
L 458.967719 331.443147 
L 460.640046 332.288922 
L 462.312374 332.940667 
L 463.984702 333.745594 
L 470.674012 335.973544 
L 477.363323 337.59217 
L 479.035651 337.886358 
L 480.707978 338.296677 
L 492.414272 339.854161 
L 502.448238 340.657647 
L 519.171515 341.301798 
L 537.567119 341.570194 
L 567.669017 341.689467 
L 616.16652 341.711855 
L 704.799886 341.713295 
L 704.799886 341.713295 
" style="fill:none;stroke:#716dad;stroke-linecap:round;stroke-width:1.5;"/>
   </g>
   <g id="line2d_4">
    <path clip-path="url(#pd3ba3568d8)" d="M 96.072614 341.713295 
L 152.931754 341.602795 
L 172.999687 341.145474 
L 181.361325 340.587079 
L 186.378308 340.081446 
L 194.739946 338.48534 
L 199.756929 336.844719 
L 203.101585 335.337118 
L 204.773912 334.470525 
L 206.44624 333.416579 
L 209.790895 330.761028 
L 211.463223 329.243476 
L 213.135551 327.484761 
L 214.807878 325.441807 
L 216.480206 341.713295 
L 218.152534 330.074457 
L 221.497189 326.610051 
L 223.169517 325.127194 
L 224.841844 324.479378 
L 226.514172 324.350155 
L 228.1865 323.863114 
L 229.858827 323.12797 
L 233.203483 320.708083 
L 234.87581 319.516011 
L 246.582104 309.231068 
L 249.926759 305.753046 
L 253.271415 302.095133 
L 259.960726 294.42738 
L 261.633053 292.276413 
L 263.305381 290.532623 
L 264.977709 288.292759 
L 268.322364 284.382029 
L 269.994692 282.064133 
L 280.028658 270.63268 
L 283.373313 267.085398 
L 288.390296 262.635127 
L 290.062624 261.14363 
L 291.734951 259.934668 
L 296.751934 256.775187 
L 298.424262 256.217577 
L 300.09659 255.229748 
L 301.768917 254.548676 
L 305.113573 253.829636 
L 311.802883 253.06438 
L 313.475211 253.410676 
L 315.147539 253.516464 
L 316.819866 254.038985 
L 318.492194 254.245454 
L 323.509177 255.78775 
L 326.853832 257.076445 
L 328.52616 258.069642 
L 330.198488 258.736312 
L 338.560126 263.406406 
L 340.232454 264.664464 
L 341.904781 265.581594 
L 351.938748 272.455679 
L 353.611075 273.53856 
L 355.283403 274.839169 
L 356.955731 341.713295 
L 358.628058 227.658648 
L 361.972714 233.998297 
L 363.645041 238.797877 
L 365.317369 244.426342 
L 366.989697 246.571024 
L 368.662024 242.021512 
L 370.334352 235.072013 
L 372.00668 228.758156 
L 373.679007 223.42689 
L 375.351335 218.845301 
L 377.023663 215.589197 
L 378.69599 212.64273 
L 382.040646 208.487957 
L 383.712973 206.882816 
L 385.385301 204.849158 
L 387.057629 203.313801 
L 388.729956 201.406617 
L 390.402284 200.126301 
L 392.074612 199.06594 
L 395.419267 198.361171 
L 397.091595 198.712573 
L 398.763922 199.568823 
L 400.43625 200.170423 
L 403.780905 202.326889 
L 405.453233 203.65342 
L 407.125561 205.495404 
L 412.142544 211.654246 
L 413.814871 214.03695 
L 422.17651 227.778051 
L 442.244442 263.707272 
L 443.916769 266.456042 
L 445.589097 269.58672 
L 448.933752 275.225005 
L 450.60608 278.388283 
L 452.278408 281.209848 
L 453.950736 283.785404 
L 457.295391 289.385982 
L 460.640046 294.594964 
L 467.329357 304.179589 
L 470.674012 308.531667 
L 472.34634 310.683681 
L 479.035651 317.941638 
L 482.380306 321.065247 
L 485.724961 323.834179 
L 489.069617 326.284309 
L 494.0866 329.402419 
L 497.431255 331.17331 
L 502.448238 333.37429 
L 509.137549 335.67569 
L 515.826859 337.294577 
L 520.843842 338.289607 
L 524.188498 338.797465 
L 527.533153 339.28359 
L 532.550136 339.825488 
L 547.601085 340.874721 
L 550.945741 340.974617 
L 562.652034 341.317247 
L 574.358328 341.498578 
L 607.804881 341.667864 
L 634.562124 341.695621 
L 704.799886 341.710939 
L 704.799886 341.710939 
" style="fill:none;stroke:#df3793;stroke-linecap:round;stroke-width:1.5;"/>
   </g>
   <g id="line2d_5">
    <path clip-path="url(#pd3ba3568d8)" d="M 96.072614 341.713295 
L 152.931754 341.602795 
L 172.999687 341.145474 
L 181.361325 340.587079 
L 186.378308 340.081446 
L 194.739946 338.48534 
L 199.756929 336.844719 
L 203.101585 335.337118 
L 204.773912 334.470525 
L 206.44624 333.416579 
L 209.790895 330.761028 
L 211.463223 329.243476 
L 213.135551 327.484761 
L 214.807878 325.441807 
L 216.480206 341.713295 
L 218.152534 330.074457 
L 221.497189 326.610051 
L 223.169517 325.127194 
L 224.841844 324.479378 
L 226.514172 324.350155 
L 228.1865 323.863114 
L 229.858827 323.12797 
L 233.203483 320.708083 
L 234.87581 319.516011 
L 246.582104 309.231068 
L 249.926759 305.753046 
L 253.271415 302.095133 
L 259.960726 294.42738 
L 261.633053 292.276413 
L 263.305381 290.532623 
L 264.977709 288.292759 
L 268.322364 284.382029 
L 269.994692 282.064133 
L 280.028658 270.63268 
L 283.373313 267.085398 
L 288.390296 262.635127 
L 290.062624 261.14363 
L 291.734951 259.934668 
L 296.751934 256.775187 
L 298.424262 256.217577 
L 300.09659 255.229748 
L 301.768917 254.548676 
L 305.113573 253.829636 
L 311.802883 253.06438 
L 313.475211 253.410676 
L 315.147539 253.516464 
L 316.819866 254.038985 
L 318.492194 254.245454 
L 323.509177 255.78775 
L 326.853832 257.076445 
L 328.52616 258.069642 
L 330.198488 258.736312 
L 338.560126 263.406406 
L 340.232454 264.664464 
L 341.904781 265.581594 
L 351.938748 272.455679 
L 353.611075 273.53856 
L 355.283403 274.839169 
L 356.955731 275.902672 
L 358.628058 277.388278 
L 363.645041 280.653155 
L 365.317369 281.963452 
L 370.334352 285.368025 
L 372.00668 286.742738 
L 375.351335 288.730965 
L 378.69599 291.036946 
L 382.040646 293.099408 
L 383.712973 294.032379 
L 385.385301 295.22995 
L 387.057629 296.050981 
L 390.402284 298.190949 
L 393.746939 299.948748 
L 395.419267 300.734822 
L 398.763922 302.703672 
L 402.108578 304.332379 
L 405.453233 305.951397 
L 407.125561 306.636135 
L 408.797888 307.568321 
L 410.470216 308.180526 
L 412.142544 309.006401 
L 420.504182 312.337787 
L 425.521165 314.215251 
L 427.193493 314.613001 
L 430.538148 315.878784 
L 432.210476 316.250218 
L 433.882803 316.97659 
L 435.555131 317.302463 
L 438.899786 318.348946 
L 445.589097 320.090641 
L 458.967719 323.244886 
L 460.640046 323.468113 
L 470.674012 325.528741 
L 477.363323 326.601279 
L 485.724961 327.850303 
L 504.120566 330.267964 
L 507.465221 330.570924 
L 510.809876 331.011356 
L 514.154532 331.320994 
L 517.499187 331.659173 
L 522.51617 332.152236 
L 529.205481 332.662189 
L 532.550136 333.026161 
L 557.635051 334.902185 
L 562.652034 335.152513 
L 565.99669 335.413971 
L 572.686 335.780299 
L 606.132554 337.460066 
L 649.613073 338.973428 
L 652.957729 339.037712 
L 659.647039 339.247061 
L 671.353333 339.498307 
L 704.799886 340.141017 
L 704.799886 340.141017 
" style="fill:none;stroke:#bed4e7;stroke-linecap:round;stroke-width:1.5;"/>
   </g>
   <g id="patch_3">
    <path d="M 65.63625 356.53875 
L 65.63625 30.37875 
" style="fill:none;stroke:#262626;stroke-linecap:square;stroke-linejoin:miter;stroke-width:1.25;"/>
   </g>
   <g id="patch_4">
    <path d="M 735.23625 356.53875 
L 735.23625 30.37875 
" style="fill:none;stroke:#262626;stroke-linecap:square;stroke-linejoin:miter;stroke-width:1.25;"/>
   </g>
   <g id="patch_5">
    <path d="M 65.63625 356.53875 
L 735.23625 356.53875 
" style="fill:none;stroke:#262626;stroke-linecap:square;stroke-linejoin:miter;stroke-width:1.25;"/>
   </g>
   <g id="patch_6">
    <path d="M 65.63625 30.37875 
L 735.23625 30.37875 
" style="fill:none;stroke:#262626;stroke-linecap:square;stroke-linejoin:miter;stroke-width:1.25;"/>
   </g>
   <g id="text_14">
    <!-- Incidence -->
    <defs>
     <path d="M 9.328125 0 
L 9.328125 71.578125 
L 18.796875 71.578125 
L 18.796875 0 
z
" id="ArialMT-73"/>
     <path d="M 6.59375 0 
L 6.59375 51.859375 
L 14.5 51.859375 
L 14.5 44.484375 
Q 20.21875 53.03125 31 53.03125 
Q 35.6875 53.03125 39.625 51.34375 
Q 43.5625 49.65625 45.515625 46.921875 
Q 47.46875 44.1875 48.25 40.4375 
Q 48.734375 37.984375 48.734375 31.890625 
L 48.734375 0 
L 39.9375 0 
L 39.9375 31.546875 
Q 39.9375 36.921875 38.90625 39.578125 
Q 37.890625 42.234375 35.28125 43.8125 
Q 32.671875 45.40625 29.15625 45.40625 
Q 23.53125 45.40625 19.453125 41.84375 
Q 15.375 38.28125 15.375 28.328125 
L 15.375 0 
z
" id="ArialMT-110"/>
     <path d="M 40.4375 19 
L 49.078125 17.875 
Q 47.65625 8.9375 41.8125 3.875 
Q 35.984375 -1.171875 27.484375 -1.171875 
Q 16.84375 -1.171875 10.375 5.78125 
Q 3.90625 12.75 3.90625 25.734375 
Q 3.90625 34.125 6.6875 40.421875 
Q 9.46875 46.734375 15.15625 49.875 
Q 20.84375 53.03125 27.546875 53.03125 
Q 35.984375 53.03125 41.359375 48.75 
Q 46.734375 44.484375 48.25 36.625 
L 39.703125 35.296875 
Q 38.484375 40.53125 35.375 43.15625 
Q 32.28125 45.796875 27.875 45.796875 
Q 21.234375 45.796875 17.078125 41.03125 
Q 12.9375 36.28125 12.9375 25.984375 
Q 12.9375 15.53125 16.9375 10.796875 
Q 20.953125 6.0625 27.390625 6.0625 
Q 32.5625 6.0625 36.03125 9.234375 
Q 39.5 12.40625 40.4375 19 
z
" id="ArialMT-99"/>
     <path d="M 6.640625 61.46875 
L 6.640625 71.578125 
L 15.4375 71.578125 
L 15.4375 61.46875 
z
M 6.640625 0 
L 6.640625 51.859375 
L 15.4375 51.859375 
L 15.4375 0 
z
" id="ArialMT-105"/>
     <path d="M 40.234375 0 
L 40.234375 6.546875 
Q 35.296875 -1.171875 25.734375 -1.171875 
Q 19.53125 -1.171875 14.328125 2.25 
Q 9.125 5.671875 6.265625 11.796875 
Q 3.421875 17.921875 3.421875 25.875 
Q 3.421875 33.640625 6 39.96875 
Q 8.59375 46.296875 13.765625 49.65625 
Q 18.953125 53.03125 25.34375 53.03125 
Q 30.03125 53.03125 33.6875 51.046875 
Q 37.359375 49.078125 39.65625 45.90625 
L 39.65625 71.578125 
L 48.390625 71.578125 
L 48.390625 0 
z
M 12.453125 25.875 
Q 12.453125 15.921875 16.640625 10.984375 
Q 20.84375 6.0625 26.5625 6.0625 
Q 32.328125 6.0625 36.34375 10.765625 
Q 40.375 15.484375 40.375 25.140625 
Q 40.375 35.796875 36.265625 40.765625 
Q 32.171875 45.75 26.171875 45.75 
Q 20.3125 45.75 16.375 40.96875 
Q 12.453125 36.1875 12.453125 25.875 
z
" id="ArialMT-100"/>
     <path d="M 42.09375 16.703125 
L 51.171875 15.578125 
Q 49.03125 7.625 43.21875 3.21875 
Q 37.40625 -1.171875 28.375 -1.171875 
Q 17 -1.171875 10.328125 5.828125 
Q 3.65625 12.84375 3.65625 25.484375 
Q 3.65625 38.578125 10.390625 45.796875 
Q 17.140625 53.03125 27.875 53.03125 
Q 38.28125 53.03125 44.875 45.953125 
Q 51.46875 38.875 51.46875 26.03125 
Q 51.46875 25.25 51.421875 23.6875 
L 12.75 23.6875 
Q 13.234375 15.140625 17.578125 10.59375 
Q 21.921875 6.0625 28.421875 6.0625 
Q 33.25 6.0625 36.671875 8.59375 
Q 40.09375 11.140625 42.09375 16.703125 
z
M 13.234375 30.90625 
L 42.1875 30.90625 
Q 41.609375 37.453125 38.875 40.71875 
Q 34.671875 45.796875 27.984375 45.796875 
Q 21.921875 45.796875 17.796875 41.75 
Q 13.671875 37.703125 13.234375 30.90625 
z
" id="ArialMT-101"/>
    </defs>
    <g style="fill:#262626;" transform="translate(349.070625 24.37875)scale(0.24 -0.24)">
     <use xlink:href="#ArialMT-73"/>
     <use x="27.783203" xlink:href="#ArialMT-110"/>
     <use x="83.398438" xlink:href="#ArialMT-99"/>
     <use x="133.398438" xlink:href="#ArialMT-105"/>
     <use x="155.615234" xlink:href="#ArialMT-100"/>
     <use x="211.230469" xlink:href="#ArialMT-101"/>
     <use x="266.845703" xlink:href="#ArialMT-110"/>
     <use x="322.460938" xlink:href="#ArialMT-99"/>
     <use x="372.460938" xlink:href="#ArialMT-101"/>
    </g>
   </g>
   <g id="legend_1">
    <g id="patch_7">
     <path d="M 384.13 203.577187 
L 719.83625 203.577187 
Q 724.23625 203.577187 724.23625 199.177187 
L 724.23625 45.77875 
Q 724.23625 41.37875 719.83625 41.37875 
L 384.13 41.37875 
Q 379.73 41.37875 379.73 45.77875 
L 379.73 199.177187 
Q 379.73 203.577187 384.13 203.577187 
z
" style="fill:#ffffff;opacity:0.8;stroke:#cccccc;stroke-linejoin:miter;"/>
    </g>
    <g id="line2d_6">
     <path d="M 388.53 58.225937 
L 432.53 58.225937 
" style="fill:none;stroke:#4da07e;stroke-linecap:round;stroke-width:1.5;"/>
    </g>
    <g id="line2d_7"/>
    <g id="text_15">
     <!-- Baseline -->
     <defs>
      <path d="M 7.328125 0 
L 7.328125 71.578125 
L 34.1875 71.578125 
Q 42.390625 71.578125 47.34375 69.40625 
Q 52.296875 67.234375 55.09375 62.71875 
Q 57.90625 58.203125 57.90625 53.265625 
Q 57.90625 48.6875 55.421875 44.625 
Q 52.9375 40.578125 47.90625 38.09375 
Q 54.390625 36.1875 57.875 31.59375 
Q 61.375 27 61.375 20.75 
Q 61.375 15.71875 59.25 11.390625 
Q 57.125 7.078125 54 4.734375 
Q 50.875 2.390625 46.15625 1.1875 
Q 41.453125 0 34.625 0 
z
M 16.796875 41.5 
L 32.28125 41.5 
Q 38.578125 41.5 41.3125 42.328125 
Q 44.921875 43.40625 46.75 45.890625 
Q 48.578125 48.390625 48.578125 52.15625 
Q 48.578125 55.71875 46.875 58.421875 
Q 45.171875 61.140625 41.984375 62.140625 
Q 38.8125 63.140625 31.109375 63.140625 
L 16.796875 63.140625 
z
M 16.796875 8.453125 
L 34.625 8.453125 
Q 39.203125 8.453125 41.0625 8.796875 
Q 44.34375 9.375 46.53125 10.734375 
Q 48.734375 12.109375 50.140625 14.71875 
Q 51.5625 17.328125 51.5625 20.75 
Q 51.5625 24.75 49.515625 27.703125 
Q 47.46875 30.671875 43.828125 31.859375 
Q 40.1875 33.0625 33.34375 33.0625 
L 16.796875 33.0625 
z
" id="ArialMT-66"/>
      <path d="M 40.4375 6.390625 
Q 35.546875 2.25 31.03125 0.53125 
Q 26.515625 -1.171875 21.34375 -1.171875 
Q 12.796875 -1.171875 8.203125 3 
Q 3.609375 7.171875 3.609375 13.671875 
Q 3.609375 17.484375 5.34375 20.625 
Q 7.078125 23.78125 9.890625 25.6875 
Q 12.703125 27.59375 16.21875 28.5625 
Q 18.796875 29.25 24.03125 29.890625 
Q 34.671875 31.15625 39.703125 32.90625 
Q 39.75 34.71875 39.75 35.203125 
Q 39.75 40.578125 37.25 42.78125 
Q 33.890625 45.75 27.25 45.75 
Q 21.046875 45.75 18.09375 43.578125 
Q 15.140625 41.40625 13.71875 35.890625 
L 5.125 37.0625 
Q 6.296875 42.578125 8.984375 45.96875 
Q 11.671875 49.359375 16.75 51.1875 
Q 21.828125 53.03125 28.515625 53.03125 
Q 35.15625 53.03125 39.296875 51.46875 
Q 43.453125 49.90625 45.40625 47.53125 
Q 47.359375 45.171875 48.140625 41.546875 
Q 48.578125 39.3125 48.578125 33.453125 
L 48.578125 21.734375 
Q 48.578125 9.46875 49.140625 6.21875 
Q 49.703125 2.984375 51.375 0 
L 42.1875 0 
Q 40.828125 2.734375 40.4375 6.390625 
z
M 39.703125 26.03125 
Q 34.90625 24.078125 25.34375 22.703125 
Q 19.921875 21.921875 17.671875 20.9375 
Q 15.4375 19.96875 14.203125 18.09375 
Q 12.984375 16.21875 12.984375 13.921875 
Q 12.984375 10.40625 15.640625 8.0625 
Q 18.3125 5.71875 23.4375 5.71875 
Q 28.515625 5.71875 32.46875 7.9375 
Q 36.421875 10.15625 38.28125 14.015625 
Q 39.703125 17 39.703125 22.796875 
z
" id="ArialMT-97"/>
      <path d="M 3.078125 15.484375 
L 11.765625 16.84375 
Q 12.5 11.625 15.84375 8.84375 
Q 19.1875 6.0625 25.203125 6.0625 
Q 31.25 6.0625 34.171875 8.515625 
Q 37.109375 10.984375 37.109375 14.3125 
Q 37.109375 17.28125 34.515625 19 
Q 32.71875 20.171875 25.53125 21.96875 
Q 15.875 24.421875 12.140625 26.203125 
Q 8.40625 27.984375 6.46875 31.125 
Q 4.546875 34.28125 4.546875 38.09375 
Q 4.546875 41.546875 6.125 44.5 
Q 7.71875 47.46875 10.453125 49.421875 
Q 12.5 50.921875 16.03125 51.96875 
Q 19.578125 53.03125 23.640625 53.03125 
Q 29.734375 53.03125 34.34375 51.265625 
Q 38.96875 49.515625 41.15625 46.5 
Q 43.359375 43.5 44.1875 38.484375 
L 35.59375 37.3125 
Q 35.015625 41.3125 32.203125 43.546875 
Q 29.390625 45.796875 24.265625 45.796875 
Q 18.21875 45.796875 15.625 43.796875 
Q 13.03125 41.796875 13.03125 39.109375 
Q 13.03125 37.40625 14.109375 36.03125 
Q 15.1875 34.625 17.484375 33.6875 
Q 18.796875 33.203125 25.25 31.453125 
Q 34.578125 28.953125 38.25 27.359375 
Q 41.9375 25.78125 44.03125 22.75 
Q 46.140625 19.734375 46.140625 15.234375 
Q 46.140625 10.84375 43.578125 6.953125 
Q 41.015625 3.078125 36.171875 0.953125 
Q 31.34375 -1.171875 25.25 -1.171875 
Q 15.140625 -1.171875 9.84375 3.03125 
Q 4.546875 7.234375 3.078125 15.484375 
z
" id="ArialMT-115"/>
      <path d="M 6.390625 0 
L 6.390625 71.578125 
L 15.1875 71.578125 
L 15.1875 0 
z
" id="ArialMT-108"/>
     </defs>
     <g style="fill:#262626;" transform="translate(450.13 65.925937)scale(0.22 -0.22)">
      <use xlink:href="#ArialMT-66"/>
      <use x="66.699219" xlink:href="#ArialMT-97"/>
      <use x="122.314453" xlink:href="#ArialMT-115"/>
      <use x="172.314453" xlink:href="#ArialMT-101"/>
      <use x="227.929688" xlink:href="#ArialMT-108"/>
      <use x="250.146484" xlink:href="#ArialMT-105"/>
      <use x="272.363281" xlink:href="#ArialMT-110"/>
      <use x="327.978516" xlink:href="#ArialMT-101"/>
     </g>
    </g>
    <g id="line2d_8">
     <path d="M 388.53 89.345625 
L 432.53 89.345625 
" style="fill:none;stroke:#d4743e;stroke-linecap:round;stroke-width:1.5;"/>
    </g>
    <g id="line2d_9"/>
    <g id="text_16">
     <!-- School Plus Work4Weeks -->
     <defs>
      <path d="M 4.5 23 
L 13.421875 23.78125 
Q 14.0625 18.40625 16.375 14.96875 
Q 18.703125 11.53125 23.578125 9.40625 
Q 28.46875 7.28125 34.578125 7.28125 
Q 39.984375 7.28125 44.140625 8.890625 
Q 48.296875 10.5 50.3125 13.296875 
Q 52.34375 16.109375 52.34375 19.4375 
Q 52.34375 22.796875 50.390625 25.3125 
Q 48.4375 27.828125 43.953125 29.546875 
Q 41.0625 30.671875 31.203125 33.03125 
Q 21.34375 35.40625 17.390625 37.5 
Q 12.25 40.1875 9.734375 44.15625 
Q 7.234375 48.140625 7.234375 53.078125 
Q 7.234375 58.5 10.296875 63.203125 
Q 13.375 67.921875 19.28125 70.359375 
Q 25.203125 72.796875 32.421875 72.796875 
Q 40.375 72.796875 46.453125 70.234375 
Q 52.546875 67.671875 55.8125 62.6875 
Q 59.078125 57.71875 59.328125 51.421875 
L 50.25 50.734375 
Q 49.515625 57.515625 45.28125 60.984375 
Q 41.0625 64.453125 32.8125 64.453125 
Q 24.21875 64.453125 20.28125 61.296875 
Q 16.359375 58.15625 16.359375 53.71875 
Q 16.359375 49.859375 19.140625 47.359375 
Q 21.875 44.875 33.421875 42.265625 
Q 44.96875 39.65625 49.265625 37.703125 
Q 55.515625 34.8125 58.484375 30.390625 
Q 61.46875 25.984375 61.46875 20.21875 
Q 61.46875 14.5 58.203125 9.4375 
Q 54.9375 4.390625 48.796875 1.578125 
Q 42.671875 -1.21875 35.015625 -1.21875 
Q 25.296875 -1.21875 18.71875 1.609375 
Q 12.15625 4.4375 8.421875 10.125 
Q 4.6875 15.828125 4.5 23 
z
" id="ArialMT-83"/>
      <path d="M 6.59375 0 
L 6.59375 71.578125 
L 15.375 71.578125 
L 15.375 45.90625 
Q 21.53125 53.03125 30.90625 53.03125 
Q 36.671875 53.03125 40.921875 50.75 
Q 45.171875 48.484375 47 44.484375 
Q 48.828125 40.484375 48.828125 32.859375 
L 48.828125 0 
L 40.046875 0 
L 40.046875 32.859375 
Q 40.046875 39.453125 37.1875 42.453125 
Q 34.328125 45.453125 29.109375 45.453125 
Q 25.203125 45.453125 21.75 43.421875 
Q 18.3125 41.40625 16.84375 37.9375 
Q 15.375 34.46875 15.375 28.375 
L 15.375 0 
z
" id="ArialMT-104"/>
      <path d="M 3.328125 25.921875 
Q 3.328125 40.328125 11.328125 47.265625 
Q 18.015625 53.03125 27.640625 53.03125 
Q 38.328125 53.03125 45.109375 46.015625 
Q 51.90625 39.015625 51.90625 26.65625 
Q 51.90625 16.65625 48.90625 10.90625 
Q 45.90625 5.171875 40.15625 2 
Q 34.421875 -1.171875 27.640625 -1.171875 
Q 16.75 -1.171875 10.03125 5.8125 
Q 3.328125 12.796875 3.328125 25.921875 
z
M 12.359375 25.921875 
Q 12.359375 15.96875 16.703125 11.015625 
Q 21.046875 6.0625 27.640625 6.0625 
Q 34.1875 6.0625 38.53125 11.03125 
Q 42.875 16.015625 42.875 26.21875 
Q 42.875 35.84375 38.5 40.796875 
Q 34.125 45.75 27.640625 45.75 
Q 21.046875 45.75 16.703125 40.8125 
Q 12.359375 35.890625 12.359375 25.921875 
z
" id="ArialMT-111"/>
      <path id="ArialMT-32"/>
      <path d="M 7.71875 0 
L 7.71875 71.578125 
L 34.71875 71.578125 
Q 41.84375 71.578125 45.609375 70.90625 
Q 50.875 70.015625 54.4375 67.546875 
Q 58.015625 65.09375 60.1875 60.640625 
Q 62.359375 56.203125 62.359375 50.875 
Q 62.359375 41.75 56.546875 35.421875 
Q 50.734375 29.109375 35.546875 29.109375 
L 17.1875 29.109375 
L 17.1875 0 
z
M 17.1875 37.546875 
L 35.6875 37.546875 
Q 44.875 37.546875 48.734375 40.96875 
Q 52.59375 44.390625 52.59375 50.59375 
Q 52.59375 55.078125 50.3125 58.265625 
Q 48.046875 61.46875 44.34375 62.5 
Q 41.9375 63.140625 35.5 63.140625 
L 17.1875 63.140625 
z
" id="ArialMT-80"/>
      <path d="M 40.578125 0 
L 40.578125 7.625 
Q 34.515625 -1.171875 24.125 -1.171875 
Q 19.53125 -1.171875 15.546875 0.578125 
Q 11.578125 2.34375 9.640625 5 
Q 7.71875 7.671875 6.9375 11.53125 
Q 6.390625 14.109375 6.390625 19.734375 
L 6.390625 51.859375 
L 15.1875 51.859375 
L 15.1875 23.09375 
Q 15.1875 16.21875 15.71875 13.8125 
Q 16.546875 10.359375 19.234375 8.375 
Q 21.921875 6.390625 25.875 6.390625 
Q 29.828125 6.390625 33.296875 8.421875 
Q 36.765625 10.453125 38.203125 13.9375 
Q 39.65625 17.4375 39.65625 24.078125 
L 39.65625 51.859375 
L 48.4375 51.859375 
L 48.4375 0 
z
" id="ArialMT-117"/>
      <path d="M 20.21875 0 
L 1.21875 71.578125 
L 10.9375 71.578125 
L 21.828125 24.65625 
Q 23.578125 17.28125 24.859375 10.015625 
Q 27.59375 21.484375 28.078125 23.25 
L 41.703125 71.578125 
L 53.125 71.578125 
L 63.375 35.359375 
Q 67.234375 21.875 68.953125 10.015625 
Q 70.3125 16.796875 72.515625 25.59375 
L 83.734375 71.578125 
L 93.265625 71.578125 
L 73.640625 0 
L 64.5 0 
L 49.421875 54.546875 
Q 47.515625 61.375 47.171875 62.9375 
Q 46.046875 58.015625 45.0625 54.546875 
L 29.890625 0 
z
" id="ArialMT-87"/>
      <path d="M 6.5 0 
L 6.5 51.859375 
L 14.40625 51.859375 
L 14.40625 44 
Q 17.4375 49.515625 20 51.265625 
Q 22.5625 53.03125 25.640625 53.03125 
Q 30.078125 53.03125 34.671875 50.203125 
L 31.640625 42.046875 
Q 28.421875 43.953125 25.203125 43.953125 
Q 22.3125 43.953125 20.015625 42.21875 
Q 17.71875 40.484375 16.75 37.40625 
Q 15.28125 32.71875 15.28125 27.15625 
L 15.28125 0 
z
" id="ArialMT-114"/>
      <path d="M 6.640625 0 
L 6.640625 71.578125 
L 15.4375 71.578125 
L 15.4375 30.765625 
L 36.234375 51.859375 
L 47.609375 51.859375 
L 27.78125 32.625 
L 49.609375 0 
L 38.765625 0 
L 21.625 26.515625 
L 15.4375 20.5625 
L 15.4375 0 
z
" id="ArialMT-107"/>
     </defs>
     <g style="fill:#262626;" transform="translate(450.13 97.045625)scale(0.22 -0.22)">
      <use xlink:href="#ArialMT-83"/>
      <use x="66.699219" xlink:href="#ArialMT-99"/>
      <use x="116.699219" xlink:href="#ArialMT-104"/>
      <use x="172.314453" xlink:href="#ArialMT-111"/>
      <use x="227.929688" xlink:href="#ArialMT-111"/>
      <use x="283.544922" xlink:href="#ArialMT-108"/>
      <use x="305.761719" xlink:href="#ArialMT-32"/>
      <use x="333.544922" xlink:href="#ArialMT-80"/>
      <use x="400.244141" xlink:href="#ArialMT-108"/>
      <use x="422.460938" xlink:href="#ArialMT-117"/>
      <use x="478.076172" xlink:href="#ArialMT-115"/>
      <use x="528.076172" xlink:href="#ArialMT-32"/>
      <use x="555.859375" xlink:href="#ArialMT-87"/>
      <use x="650.228516" xlink:href="#ArialMT-111"/>
      <use x="705.84375" xlink:href="#ArialMT-114"/>
      <use x="739.144531" xlink:href="#ArialMT-107"/>
      <use x="789.144531" xlink:href="#ArialMT-52"/>
      <use x="844.759766" xlink:href="#ArialMT-87"/>
      <use x="939.128906" xlink:href="#ArialMT-101"/>
      <use x="994.744141" xlink:href="#ArialMT-101"/>
      <use x="1050.359375" xlink:href="#ArialMT-107"/>
      <use x="1100.359375" xlink:href="#ArialMT-115"/>
     </g>
    </g>
    <g id="line2d_10">
     <path d="M 388.53 120.465312 
L 432.53 120.465312 
" style="fill:none;stroke:#716dad;stroke-linecap:round;stroke-width:1.5;"/>
    </g>
    <g id="line2d_11"/>
    <g id="text_17">
     <!-- School Plus Work8Weeks -->
     <g style="fill:#262626;" transform="translate(450.13 128.165312)scale(0.22 -0.22)">
      <use xlink:href="#ArialMT-83"/>
      <use x="66.699219" xlink:href="#ArialMT-99"/>
      <use x="116.699219" xlink:href="#ArialMT-104"/>
      <use x="172.314453" xlink:href="#ArialMT-111"/>
      <use x="227.929688" xlink:href="#ArialMT-111"/>
      <use x="283.544922" xlink:href="#ArialMT-108"/>
      <use x="305.761719" xlink:href="#ArialMT-32"/>
      <use x="333.544922" xlink:href="#ArialMT-80"/>
      <use x="400.244141" xlink:href="#ArialMT-108"/>
      <use x="422.460938" xlink:href="#ArialMT-117"/>
      <use x="478.076172" xlink:href="#ArialMT-115"/>
      <use x="528.076172" xlink:href="#ArialMT-32"/>
      <use x="555.859375" xlink:href="#ArialMT-87"/>
      <use x="650.228516" xlink:href="#ArialMT-111"/>
      <use x="705.84375" xlink:href="#ArialMT-114"/>
      <use x="739.144531" xlink:href="#ArialMT-107"/>
      <use x="789.144531" xlink:href="#ArialMT-56"/>
      <use x="844.759766" xlink:href="#ArialMT-87"/>
      <use x="939.128906" xlink:href="#ArialMT-101"/>
      <use x="994.744141" xlink:href="#ArialMT-101"/>
      <use x="1050.359375" xlink:href="#ArialMT-107"/>
      <use x="1100.359375" xlink:href="#ArialMT-115"/>
     </g>
    </g>
    <g id="line2d_12">
     <path d="M 388.53 151.585 
L 432.53 151.585 
" style="fill:none;stroke:#df3793;stroke-linecap:round;stroke-width:1.5;"/>
    </g>
    <g id="line2d_13"/>
    <g id="text_18">
     <!-- School Plus Work12Weeks -->
     <g style="fill:#262626;" transform="translate(450.13 159.285)scale(0.22 -0.22)">
      <use xlink:href="#ArialMT-83"/>
      <use x="66.699219" xlink:href="#ArialMT-99"/>
      <use x="116.699219" xlink:href="#ArialMT-104"/>
      <use x="172.314453" xlink:href="#ArialMT-111"/>
      <use x="227.929688" xlink:href="#ArialMT-111"/>
      <use x="283.544922" xlink:href="#ArialMT-108"/>
      <use x="305.761719" xlink:href="#ArialMT-32"/>
      <use x="333.544922" xlink:href="#ArialMT-80"/>
      <use x="400.244141" xlink:href="#ArialMT-108"/>
      <use x="422.460938" xlink:href="#ArialMT-117"/>
      <use x="478.076172" xlink:href="#ArialMT-115"/>
      <use x="528.076172" xlink:href="#ArialMT-32"/>
      <use x="555.859375" xlink:href="#ArialMT-87"/>
      <use x="650.228516" xlink:href="#ArialMT-111"/>
      <use x="705.84375" xlink:href="#ArialMT-114"/>
      <use x="739.144531" xlink:href="#ArialMT-107"/>
      <use x="789.144531" xlink:href="#ArialMT-49"/>
      <use x="844.759766" xlink:href="#ArialMT-50"/>
      <use x="900.375" xlink:href="#ArialMT-87"/>
      <use x="994.744141" xlink:href="#ArialMT-101"/>
      <use x="1050.359375" xlink:href="#ArialMT-101"/>
      <use x="1105.974609" xlink:href="#ArialMT-107"/>
      <use x="1155.974609" xlink:href="#ArialMT-115"/>
     </g>
    </g>
    <g id="line2d_14">
     <path d="M 388.53 182.704687 
L 432.53 182.704687 
" style="fill:none;stroke:#bed4e7;stroke-linecap:round;stroke-width:1.5;"/>
    </g>
    <g id="line2d_15"/>
    <g id="text_19">
     <!-- School Plus Work Forever -->
     <defs>
      <path d="M 8.203125 0 
L 8.203125 71.578125 
L 56.5 71.578125 
L 56.5 63.140625 
L 17.671875 63.140625 
L 17.671875 40.96875 
L 51.265625 40.96875 
L 51.265625 32.515625 
L 17.671875 32.515625 
L 17.671875 0 
z
" id="ArialMT-70"/>
      <path d="M 21 0 
L 1.265625 51.859375 
L 10.546875 51.859375 
L 21.6875 20.796875 
Q 23.484375 15.765625 25 10.359375 
Q 26.171875 14.453125 28.265625 20.21875 
L 39.796875 51.859375 
L 48.828125 51.859375 
L 29.203125 0 
z
" id="ArialMT-118"/>
     </defs>
     <g style="fill:#262626;" transform="translate(450.13 190.404687)scale(0.22 -0.22)">
      <use xlink:href="#ArialMT-83"/>
      <use x="66.699219" xlink:href="#ArialMT-99"/>
      <use x="116.699219" xlink:href="#ArialMT-104"/>
      <use x="172.314453" xlink:href="#ArialMT-111"/>
      <use x="227.929688" xlink:href="#ArialMT-111"/>
      <use x="283.544922" xlink:href="#ArialMT-108"/>
      <use x="305.761719" xlink:href="#ArialMT-32"/>
      <use x="333.544922" xlink:href="#ArialMT-80"/>
      <use x="400.244141" xlink:href="#ArialMT-108"/>
      <use x="422.460938" xlink:href="#ArialMT-117"/>
      <use x="478.076172" xlink:href="#ArialMT-115"/>
      <use x="528.076172" xlink:href="#ArialMT-32"/>
      <use x="555.859375" xlink:href="#ArialMT-87"/>
      <use x="650.228516" xlink:href="#ArialMT-111"/>
      <use x="705.84375" xlink:href="#ArialMT-114"/>
      <use x="739.144531" xlink:href="#ArialMT-107"/>
      <use x="789.144531" xlink:href="#ArialMT-32"/>
      <use x="816.927734" xlink:href="#ArialMT-70"/>
      <use x="878.011719" xlink:href="#ArialMT-111"/>
      <use x="933.626953" xlink:href="#ArialMT-114"/>
      <use x="966.927734" xlink:href="#ArialMT-101"/>
      <use x="1022.542969" xlink:href="#ArialMT-118"/>
      <use x="1072.542969" xlink:href="#ArialMT-101"/>
      <use x="1128.158203" xlink:href="#ArialMT-114"/>
     </g>
    </g>
   </g>
  </g>
 </g>
 <defs>
  <clipPath id="pd3ba3568d8">
   <rect height="326.16" width="669.6" x="65.63625" y="30.37875"/>
  </clipPath>
 </defs>
</svg>
