<?xml version="1.0" encoding="utf-8" standalone="no"?>
<!DOCTYPE svg PUBLIC "-//W3C//DTD SVG 1.1//EN"
  "http://www.w3.org/Graphics/SVG/1.1/DTD/svg11.dtd">
<!-- Created with matplotlib (https://matplotlib.org/) -->
<svg height="393.358437pt" version="1.1" viewBox="0 0 736.314062 393.358437" width="736.314062pt" xmlns="http://www.w3.org/2000/svg" xmlns:xlink="http://www.w3.org/1999/xlink">
 <defs>
  <style type="text/css">
*{stroke-linecap:butt;stroke-linejoin:round;}
  </style>
 </defs>
 <g id="figure_1">
  <g id="patch_1">
   <path d="M 0 393.358437 
L 736.314062 393.358437 
L 736.314062 0 
L 0 0 
z
" style="fill:#ffffff;"/>
  </g>
  <g id="axes_1">
   <g id="patch_2">
    <path d="M 59.514063 356.53875 
L 729.114063 356.53875 
L 729.114063 30.37875 
L 59.514063 30.37875 
z
" style="fill:#ffffff;"/>
   </g>
   <g id="matplotlib.axis_1">
    <g id="xtick_1">
     <g id="text_1">
      <!-- 0 -->
      <defs>
       <path d="M 4.15625 35.296875 
Q 4.15625 48 6.765625 55.734375 
Q 9.375 63.484375 14.515625 67.671875 
Q 19.671875 71.875 27.484375 71.875 
Q 33.25 71.875 37.59375 69.546875 
Q 41.9375 67.234375 44.765625 62.859375 
Q 47.609375 58.5 49.21875 52.21875 
Q 50.828125 45.953125 50.828125 35.296875 
Q 50.828125 22.703125 48.234375 14.96875 
Q 45.65625 7.234375 40.5 3 
Q 35.359375 -1.21875 27.484375 -1.21875 
Q 17.140625 -1.21875 11.234375 6.203125 
Q 4.15625 15.140625 4.15625 35.296875 
z
M 13.1875 35.296875 
Q 13.1875 17.671875 17.3125 11.828125 
Q 21.4375 6 27.484375 6 
Q 33.546875 6 37.671875 11.859375 
Q 41.796875 17.71875 41.796875 35.296875 
Q 41.796875 52.984375 37.671875 58.78125 
Q 33.546875 64.59375 27.390625 64.59375 
Q 21.34375 64.59375 17.71875 59.46875 
Q 13.1875 52.9375 13.1875 35.296875 
z
" id="ArialMT-48"/>
      </defs>
      <g style="fill:#262626;" transform="translate(83.833395 381.785937)scale(0.22 -0.22)">
       <use xlink:href="#ArialMT-48"/>
      </g>
     </g>
    </g>
    <g id="xtick_2">
     <g id="text_2">
      <!-- 50 -->
      <defs>
       <path d="M 4.15625 18.75 
L 13.375 19.53125 
Q 14.40625 12.796875 18.140625 9.390625 
Q 21.875 6 27.15625 6 
Q 33.5 6 37.890625 10.78125 
Q 42.28125 15.578125 42.28125 23.484375 
Q 42.28125 31 38.0625 35.34375 
Q 33.84375 39.703125 27 39.703125 
Q 22.75 39.703125 19.328125 37.765625 
Q 15.921875 35.84375 13.96875 32.765625 
L 5.71875 33.84375 
L 12.640625 70.609375 
L 48.25 70.609375 
L 48.25 62.203125 
L 19.671875 62.203125 
L 15.828125 42.96875 
Q 22.265625 47.46875 29.34375 47.46875 
Q 38.71875 47.46875 45.15625 40.96875 
Q 51.609375 34.46875 51.609375 24.265625 
Q 51.609375 14.546875 45.953125 7.46875 
Q 39.0625 -1.21875 27.15625 -1.21875 
Q 17.390625 -1.21875 11.203125 4.25 
Q 5.03125 9.71875 4.15625 18.75 
z
" id="ArialMT-53"/>
      </defs>
      <g style="fill:#262626;" transform="translate(161.332747 381.785937)scale(0.22 -0.22)">
       <use xlink:href="#ArialMT-53"/>
       <use x="55.615234" xlink:href="#ArialMT-48"/>
      </g>
     </g>
    </g>
    <g id="xtick_3">
     <g id="text_3">
      <!-- 100 -->
      <defs>
       <path d="M 37.25 0 
L 28.46875 0 
L 28.46875 56 
Q 25.296875 52.984375 20.140625 49.953125 
Q 14.984375 46.921875 10.890625 45.40625 
L 10.890625 53.90625 
Q 18.265625 57.375 23.78125 62.296875 
Q 29.296875 67.234375 31.59375 71.875 
L 37.25 71.875 
z
" id="ArialMT-49"/>
      </defs>
      <g style="fill:#262626;" transform="translate(238.8321 381.785937)scale(0.22 -0.22)">
       <use xlink:href="#ArialMT-49"/>
       <use x="55.615234" xlink:href="#ArialMT-48"/>
       <use x="111.230469" xlink:href="#ArialMT-48"/>
      </g>
     </g>
    </g>
    <g id="xtick_4">
     <g id="text_4">
      <!-- 150 -->
      <g style="fill:#262626;" transform="translate(322.448483 381.785937)scale(0.22 -0.22)">
       <use xlink:href="#ArialMT-49"/>
       <use x="55.615234" xlink:href="#ArialMT-53"/>
       <use x="111.230469" xlink:href="#ArialMT-48"/>
      </g>
     </g>
    </g>
    <g id="xtick_5">
     <g id="text_5">
      <!-- 200 -->
      <defs>
       <path d="M 50.34375 8.453125 
L 50.34375 0 
L 3.03125 0 
Q 2.9375 3.171875 4.046875 6.109375 
Q 5.859375 10.9375 9.828125 15.625 
Q 13.8125 20.3125 21.34375 26.46875 
Q 33.015625 36.03125 37.109375 41.625 
Q 41.21875 47.21875 41.21875 52.203125 
Q 41.21875 57.421875 37.46875 61 
Q 33.734375 64.59375 27.734375 64.59375 
Q 21.390625 64.59375 17.578125 60.78125 
Q 13.765625 56.984375 13.71875 50.25 
L 4.6875 51.171875 
Q 5.609375 61.28125 11.65625 66.578125 
Q 17.71875 71.875 27.9375 71.875 
Q 38.234375 71.875 44.234375 66.15625 
Q 50.25 60.453125 50.25 52 
Q 50.25 47.703125 48.484375 43.546875 
Q 46.734375 39.40625 42.65625 34.8125 
Q 38.578125 30.21875 29.109375 22.21875 
Q 21.1875 15.578125 18.9375 13.203125 
Q 16.703125 10.84375 15.234375 8.453125 
z
" id="ArialMT-50"/>
      </defs>
      <g style="fill:#262626;" transform="translate(406.064867 381.785937)scale(0.22 -0.22)">
       <use xlink:href="#ArialMT-50"/>
       <use x="55.615234" xlink:href="#ArialMT-48"/>
       <use x="111.230469" xlink:href="#ArialMT-48"/>
      </g>
     </g>
    </g>
    <g id="xtick_6">
     <g id="text_6">
      <!-- 250 -->
      <g style="fill:#262626;" transform="translate(489.68125 381.785937)scale(0.22 -0.22)">
       <use xlink:href="#ArialMT-50"/>
       <use x="55.615234" xlink:href="#ArialMT-53"/>
       <use x="111.230469" xlink:href="#ArialMT-48"/>
      </g>
     </g>
    </g>
    <g id="xtick_7">
     <g id="text_7">
      <!-- 300 -->
      <defs>
       <path d="M 4.203125 18.890625 
L 12.984375 20.0625 
Q 14.5 12.59375 18.140625 9.296875 
Q 21.78125 6 27 6 
Q 33.203125 6 37.46875 10.296875 
Q 41.75 14.59375 41.75 20.953125 
Q 41.75 27 37.796875 30.921875 
Q 33.84375 34.859375 27.734375 34.859375 
Q 25.25 34.859375 21.53125 33.890625 
L 22.515625 41.609375 
Q 23.390625 41.5 23.921875 41.5 
Q 29.546875 41.5 34.03125 44.421875 
Q 38.53125 47.359375 38.53125 53.46875 
Q 38.53125 58.296875 35.25 61.46875 
Q 31.984375 64.65625 26.8125 64.65625 
Q 21.6875 64.65625 18.265625 61.421875 
Q 14.84375 58.203125 13.875 51.765625 
L 5.078125 53.328125 
Q 6.6875 62.15625 12.390625 67.015625 
Q 18.109375 71.875 26.609375 71.875 
Q 32.46875 71.875 37.390625 69.359375 
Q 42.328125 66.84375 44.9375 62.5 
Q 47.5625 58.15625 47.5625 53.265625 
Q 47.5625 48.640625 45.0625 44.828125 
Q 42.578125 41.015625 37.703125 38.765625 
Q 44.046875 37.3125 47.5625 32.6875 
Q 51.078125 28.078125 51.078125 21.140625 
Q 51.078125 11.765625 44.234375 5.25 
Q 37.40625 -1.265625 26.953125 -1.265625 
Q 17.53125 -1.265625 11.296875 4.34375 
Q 5.078125 9.96875 4.203125 18.890625 
z
" id="ArialMT-51"/>
      </defs>
      <g style="fill:#262626;" transform="translate(573.297634 381.785937)scale(0.22 -0.22)">
       <use xlink:href="#ArialMT-51"/>
       <use x="55.615234" xlink:href="#ArialMT-48"/>
       <use x="111.230469" xlink:href="#ArialMT-48"/>
      </g>
     </g>
    </g>
    <g id="xtick_8">
     <g id="text_8">
      <!-- 350 -->
      <g style="fill:#262626;" transform="translate(656.914018 381.785937)scale(0.22 -0.22)">
       <use xlink:href="#ArialMT-51"/>
       <use x="55.615234" xlink:href="#ArialMT-53"/>
       <use x="111.230469" xlink:href="#ArialMT-48"/>
      </g>
     </g>
    </g>
   </g>
   <g id="matplotlib.axis_2">
    <g id="ytick_1">
     <g id="text_9">
      <!-- 0.00 -->
      <defs>
       <path d="M 9.078125 0 
L 9.078125 10.015625 
L 19.09375 10.015625 
L 19.09375 0 
z
" id="ArialMT-46"/>
      </defs>
      <g style="fill:#262626;" transform="translate(7.2 349.586889)scale(0.22 -0.22)">
       <use xlink:href="#ArialMT-48"/>
       <use x="55.615234" xlink:href="#ArialMT-46"/>
       <use x="83.398438" xlink:href="#ArialMT-48"/>
       <use x="139.013672" xlink:href="#ArialMT-48"/>
      </g>
     </g>
    </g>
    <g id="ytick_2">
     <g id="text_10">
      <!-- 0.05 -->
      <g style="fill:#262626;" transform="translate(7.2 262.544288)scale(0.22 -0.22)">
       <use xlink:href="#ArialMT-48"/>
       <use x="55.615234" xlink:href="#ArialMT-46"/>
       <use x="83.398438" xlink:href="#ArialMT-48"/>
       <use x="139.013672" xlink:href="#ArialMT-53"/>
      </g>
     </g>
    </g>
    <g id="ytick_3">
     <g id="text_11">
      <!-- 0.10 -->
      <g style="fill:#262626;" transform="translate(7.2 175.501686)scale(0.22 -0.22)">
       <use xlink:href="#ArialMT-48"/>
       <use x="55.615234" xlink:href="#ArialMT-46"/>
       <use x="83.398438" xlink:href="#ArialMT-49"/>
       <use x="139.013672" xlink:href="#ArialMT-48"/>
      </g>
     </g>
    </g>
    <g id="ytick_4">
     <g id="text_12">
      <!-- 0.15 -->
      <g style="fill:#262626;" transform="translate(7.2 88.459084)scale(0.22 -0.22)">
       <use xlink:href="#ArialMT-48"/>
       <use x="55.615234" xlink:href="#ArialMT-46"/>
       <use x="83.398438" xlink:href="#ArialMT-49"/>
       <use x="139.013672" xlink:href="#ArialMT-53"/>
      </g>
     </g>
    </g>
   </g>
   <g id="line2d_1">
    <path clip-path="url(#p910a896fde)" d="M 89.950426 341.713295 
L 155.171205 341.603904 
L 170.222154 341.361288 
L 178.583793 341.029936 
L 185.273103 340.54611 
L 190.290086 339.966767 
L 193.634742 339.432756 
L 196.979397 338.732918 
L 200.324053 337.819445 
L 203.668708 336.612816 
L 207.013363 335.048099 
L 208.685691 334.094817 
L 210.358019 333.006478 
L 212.030346 331.762642 
L 213.702674 330.349905 
L 215.375002 328.739615 
L 217.047329 326.907607 
L 218.719657 324.825404 
L 220.391985 322.455002 
L 222.064312 319.778772 
L 223.73664 316.756443 
L 225.408968 313.352994 
L 227.081295 309.535917 
L 228.753623 305.252785 
L 230.425951 300.467655 
L 232.098278 295.154984 
L 233.770606 289.275993 
L 235.442934 282.774489 
L 237.115261 275.657448 
L 238.787589 267.883405 
L 240.459917 259.451756 
L 242.132244 250.357031 
L 245.4769 230.325202 
L 248.821555 208.106846 
L 253.838538 172.11654 
L 258.855521 135.636775 
L 262.200176 112.748681 
L 263.872504 102.119813 
L 265.544832 92.22658 
L 267.217159 83.130018 
L 268.889487 74.919587 
L 270.561815 67.602652 
L 272.234142 61.29151 
L 273.90647 56.024816 
L 275.578798 51.828395 
L 277.251125 48.66863 
L 278.923453 46.543343 
L 280.595781 45.400345 
L 282.268108 45.204205 
L 283.940436 45.915717 
L 285.612764 47.511931 
L 287.285091 49.872815 
L 288.957419 52.976928 
L 290.629747 56.699935 
L 292.302074 61.059731 
L 293.974402 65.983144 
L 297.319058 77.060142 
L 300.663713 89.475692 
L 305.680696 109.548377 
L 319.059317 164.077968 
L 324.0763 183.335928 
L 329.093283 201.557063 
L 334.110266 218.703913 
L 337.454922 229.550491 
L 342.471905 244.783728 
L 345.81656 254.257068 
L 349.161215 263.160768 
L 352.505871 271.474149 
L 355.850526 279.159937 
L 359.195181 286.253878 
L 362.539837 292.725648 
L 365.884492 298.570959 
L 369.229147 303.801443 
L 372.573803 308.459476 
L 375.918458 312.606257 
L 379.263113 316.26171 
L 382.607769 319.453444 
L 385.952424 322.253978 
L 389.297079 324.714575 
L 392.641735 326.858138 
L 395.98639 328.749386 
L 399.331046 330.389753 
L 402.675701 331.82528 
L 407.692684 333.62908 
L 412.709667 335.102012 
L 417.72665 336.295201 
L 422.743633 337.283664 
L 429.432944 338.344409 
L 436.122254 339.179401 
L 444.483893 339.985809 
L 454.517859 340.665608 
L 464.551825 341.10484 
L 476.258118 341.403268 
L 494.653723 341.610121 
L 526.427949 341.69791 
L 691.988388 341.713295 
L 698.677699 341.713295 
L 698.677699 341.713295 
" style="fill:none;stroke:#4da07e;stroke-linecap:round;stroke-width:1.5;"/>
   </g>
   <g id="line2d_2">
    <path clip-path="url(#p910a896fde)" d="M 89.950426 341.713295 
L 155.171205 341.603904 
L 170.222154 341.361288 
L 178.583793 341.029936 
L 185.273103 340.54611 
L 190.290086 339.966767 
L 193.634742 339.432756 
L 196.979397 338.732918 
L 200.324053 337.819445 
L 203.668708 336.612816 
L 207.013363 335.048099 
L 208.685691 334.094817 
L 210.358019 334.409525 
L 213.702674 333.298046 
L 222.064312 330.024648 
L 225.408968 328.79143 
L 228.753623 327.239175 
L 232.098278 325.365126 
L 238.787589 321.259571 
L 242.132244 318.967043 
L 245.4769 316.415568 
L 248.821555 313.649245 
L 253.838538 309.158593 
L 255.510866 307.558949 
L 257.183193 309.865649 
L 262.200176 294.87818 
L 267.217159 280.017913 
L 268.889487 274.083625 
L 270.561815 267.000885 
L 272.234142 258.858155 
L 275.578798 240.405773 
L 282.268108 200.898303 
L 287.285091 168.979331 
L 290.629747 147.647108 
L 293.974402 127.887256 
L 295.64673 118.864772 
L 297.319058 110.515792 
L 298.991385 102.867428 
L 300.663713 95.990704 
L 302.336041 89.929939 
L 304.008368 84.744241 
L 305.680696 80.413148 
L 307.353024 77.001869 
L 309.025351 74.513225 
L 310.697679 72.89747 
L 312.370007 72.174872 
L 314.042334 72.27763 
L 315.714662 73.117318 
L 317.38699 74.68763 
L 319.059317 76.91176 
L 320.731645 79.711634 
L 322.403973 83.074323 
L 324.0763 86.878083 
L 325.748628 91.140822 
L 329.093283 100.584112 
L 332.437939 110.984001 
L 337.454922 127.53374 
L 347.488888 161.165639 
L 354.178198 182.509152 
L 359.195181 197.629283 
L 364.212164 211.974048 
L 369.229147 225.568553 
L 374.24613 238.480319 
L 379.263113 250.723248 
L 384.280096 262.342517 
L 387.624752 269.709992 
L 392.641735 280.1342 
L 395.98639 286.593643 
L 399.331046 292.611675 
L 402.675701 298.160834 
L 406.020356 303.240346 
L 409.365012 307.819482 
L 412.709667 311.906316 
L 416.054322 315.534878 
L 419.398978 318.730479 
L 422.743633 321.53251 
L 426.088288 324.008493 
L 429.432944 326.152281 
L 432.777599 328.037363 
L 436.122254 329.685537 
L 439.46691 331.144943 
L 444.483893 333.001555 
L 449.500876 334.52972 
L 454.517859 335.793653 
L 459.534842 336.846829 
L 466.224152 337.983181 
L 472.913463 338.893424 
L 481.275101 339.770769 
L 489.63674 340.412009 
L 499.670706 340.93626 
L 511.377 341.306049 
L 526.427949 341.542024 
L 553.185191 341.677428 
L 621.750626 341.712575 
L 698.677699 341.713295 
L 698.677699 341.713295 
" style="fill:none;stroke:#d4743e;stroke-linecap:round;stroke-width:1.5;"/>
   </g>
   <g id="line2d_3">
    <path clip-path="url(#p910a896fde)" d="M 89.950426 341.713295 
L 155.171205 341.603904 
L 170.222154 341.361288 
L 178.583793 341.029936 
L 185.273103 340.54611 
L 190.290086 339.966767 
L 193.634742 339.432756 
L 196.979397 338.732918 
L 200.324053 337.819445 
L 203.668708 336.612816 
L 207.013363 335.048099 
L 208.685691 334.094817 
L 210.358019 334.409525 
L 213.702674 333.298046 
L 222.064312 330.024648 
L 225.408968 328.79143 
L 228.753623 327.239175 
L 232.098278 325.365126 
L 238.787589 321.259571 
L 242.132244 318.967043 
L 245.4769 316.415568 
L 248.821555 313.649245 
L 253.838538 309.158593 
L 258.855521 304.280351 
L 263.872504 299.03384 
L 272.234142 289.853248 
L 282.268108 278.814388 
L 287.285091 273.645084 
L 292.302074 268.95251 
L 295.64673 266.116449 
L 298.991385 263.579187 
L 302.336041 261.354515 
L 304.008368 267.819875 
L 307.353024 254.465171 
L 309.025351 248.210793 
L 310.697679 242.409144 
L 314.042334 232.075036 
L 315.714662 226.031632 
L 317.38699 218.809881 
L 319.059317 210.536447 
L 324.0763 183.972276 
L 325.748628 176.01924 
L 329.093283 161.724514 
L 334.110266 141.846295 
L 335.782594 135.739613 
L 337.454922 130.189492 
L 339.127249 125.354512 
L 340.799577 121.296016 
L 342.471905 118.018829 
L 344.144232 115.482699 
L 345.81656 113.644853 
L 347.488888 112.518654 
L 349.161215 112.043468 
L 350.833543 112.176869 
L 352.505871 112.929611 
L 354.178198 114.252846 
L 355.850526 116.152336 
L 357.522854 118.56502 
L 359.195181 121.447558 
L 360.867509 124.702604 
L 362.539837 128.294897 
L 365.884492 136.273218 
L 369.229147 145.028988 
L 374.24613 158.950403 
L 384.280096 187.208949 
L 389.297079 200.652966 
L 394.314062 213.399588 
L 399.331046 225.378063 
L 404.348029 236.728167 
L 409.365012 247.488703 
L 414.381995 257.820226 
L 421.071305 270.918186 
L 426.088288 280.19349 
L 429.432944 286.085848 
L 432.777599 291.668015 
L 436.122254 296.900105 
L 439.46691 301.75524 
L 442.811565 306.232888 
L 446.15622 310.295249 
L 449.500876 313.961961 
L 452.845531 317.217599 
L 456.190186 320.096501 
L 459.534842 322.625593 
L 462.879497 324.839038 
L 466.224152 326.763664 
L 469.568808 328.457157 
L 474.585791 330.608568 
L 479.602774 332.396946 
L 484.619757 333.905722 
L 489.63674 335.187637 
L 494.653723 336.275049 
L 499.670706 337.191499 
L 506.360017 338.205134 
L 513.049327 339.006341 
L 521.410966 339.796364 
L 529.772604 340.39005 
L 539.80657 340.896928 
L 551.512864 341.272387 
L 566.563813 341.522253 
L 589.9764 341.664361 
L 646.835541 341.711481 
L 698.677699 341.713174 
L 698.677699 341.713174 
" style="fill:none;stroke:#716dad;stroke-linecap:round;stroke-width:1.5;"/>
   </g>
   <g id="line2d_4">
    <path clip-path="url(#p910a896fde)" d="M 89.950426 341.713295 
L 155.171205 341.603904 
L 170.222154 341.361288 
L 178.583793 341.029936 
L 185.273103 340.54611 
L 190.290086 339.966767 
L 193.634742 339.432756 
L 196.979397 338.732918 
L 200.324053 337.819445 
L 203.668708 336.612816 
L 207.013363 335.048099 
L 208.685691 334.094817 
L 210.358019 334.409525 
L 213.702674 333.298046 
L 222.064312 330.024648 
L 225.408968 328.79143 
L 228.753623 327.239175 
L 232.098278 325.365126 
L 238.787589 321.259571 
L 242.132244 318.967043 
L 245.4769 316.415568 
L 248.821555 313.649245 
L 253.838538 309.158593 
L 258.855521 304.280351 
L 263.872504 299.03384 
L 272.234142 289.853248 
L 282.268108 278.814388 
L 287.285091 273.645084 
L 292.302074 268.95251 
L 295.64673 266.116449 
L 298.991385 263.579187 
L 302.336041 261.354515 
L 305.680696 259.438419 
L 309.025351 257.898277 
L 312.370007 256.708198 
L 315.714662 255.83762 
L 319.059317 255.292002 
L 320.731645 255.123128 
L 324.0763 255.078162 
L 327.420956 255.315834 
L 330.765611 255.831792 
L 334.110266 256.597281 
L 337.454922 257.590753 
L 340.799577 258.791664 
L 344.144232 260.194195 
L 349.161215 262.528462 
L 350.833543 269.759467 
L 354.178198 262.070595 
L 355.850526 258.535326 
L 357.522854 255.343188 
L 360.867509 249.927532 
L 362.539837 246.620819 
L 364.212164 242.424497 
L 365.884492 237.430187 
L 370.901475 221.045053 
L 372.573803 216.257015 
L 375.918458 207.955255 
L 382.607769 192.344125 
L 384.280096 188.81833 
L 385.952424 185.646366 
L 387.624752 182.912061 
L 389.297079 180.557638 
L 390.969407 178.639285 
L 392.641735 177.153781 
L 394.314062 176.020401 
L 395.98639 175.221573 
L 397.658718 174.786987 
L 399.331046 174.71432 
L 401.003373 175.031613 
L 402.675701 175.712962 
L 404.348029 176.760086 
L 406.020356 178.108978 
L 407.692684 179.763167 
L 409.365012 181.678091 
L 411.037339 183.847342 
L 414.381995 188.777548 
L 417.72665 194.416208 
L 421.071305 200.55371 
L 427.760616 213.665526 
L 444.483893 247.103924 
L 451.173203 259.929482 
L 456.190186 269.20454 
L 461.207169 278.08877 
L 466.224152 286.472394 
L 471.241135 294.245504 
L 474.585791 299.032978 
L 477.930446 303.480799 
L 481.275101 307.569036 
L 484.619757 311.301683 
L 487.964412 314.678137 
L 491.309067 317.746032 
L 494.653723 320.481266 
L 497.998378 322.913608 
L 501.343034 325.096129 
L 504.687689 327.040948 
L 508.032344 328.767098 
L 513.049327 330.991418 
L 518.06631 332.84106 
L 523.083293 334.358925 
L 528.100276 335.597706 
L 533.117259 336.598612 
L 539.80657 337.668396 
L 546.495881 338.514379 
L 554.857519 339.372891 
L 564.891485 340.158513 
L 574.925451 340.732212 
L 586.631745 341.171939 
L 600.010366 341.447332 
L 620.078298 341.620983 
L 658.541835 341.699681 
L 698.677699 341.710699 
L 698.677699 341.710699 
" style="fill:none;stroke:#df3793;stroke-linecap:round;stroke-width:1.5;"/>
   </g>
   <g id="line2d_5">
    <path clip-path="url(#p910a896fde)" d="M 89.950426 341.713295 
L 155.171205 341.603904 
L 170.222154 341.361288 
L 178.583793 341.029936 
L 185.273103 340.54611 
L 190.290086 339.966767 
L 193.634742 339.432756 
L 196.979397 338.732918 
L 200.324053 337.819445 
L 203.668708 336.612816 
L 207.013363 335.048099 
L 208.685691 334.094817 
L 210.358019 334.409525 
L 213.702674 333.298046 
L 222.064312 330.024648 
L 225.408968 328.79143 
L 228.753623 327.239175 
L 232.098278 325.365126 
L 238.787589 321.259571 
L 242.132244 318.967043 
L 245.4769 316.415568 
L 248.821555 313.649245 
L 253.838538 309.158593 
L 258.855521 304.280351 
L 263.872504 299.03384 
L 272.234142 289.853248 
L 282.268108 278.814388 
L 287.285091 273.645084 
L 292.302074 268.95251 
L 295.64673 266.116449 
L 298.991385 263.579187 
L 302.336041 261.354515 
L 305.680696 259.438419 
L 309.025351 257.898277 
L 312.370007 256.708198 
L 315.714662 255.83762 
L 319.059317 255.292002 
L 320.731645 255.123128 
L 324.0763 255.078162 
L 327.420956 255.315834 
L 330.765611 255.831792 
L 334.110266 256.597281 
L 337.454922 257.590753 
L 340.799577 258.791664 
L 344.144232 260.194195 
L 349.161215 262.528462 
L 354.178198 265.230934 
L 360.867509 269.087012 
L 367.55682 273.197697 
L 387.624752 285.710854 
L 399.331046 292.43667 
L 407.692684 296.906592 
L 414.381995 300.228978 
L 419.398978 302.583404 
L 429.432944 306.916202 
L 436.122254 309.505423 
L 444.483893 312.490163 
L 452.845531 315.171736 
L 461.207169 317.560635 
L 469.568808 319.702644 
L 477.930446 321.62514 
L 486.292084 323.345814 
L 497.998378 325.461637 
L 509.704672 327.279909 
L 523.083293 329.048415 
L 534.789587 330.420666 
L 549.840536 331.943576 
L 568.23614 333.457117 
L 586.631745 334.728095 
L 610.044332 336.037857 
L 635.129247 337.155127 
L 663.558818 338.136707 
L 693.660716 338.955575 
L 698.677699 339.075437 
L 698.677699 339.075437 
" style="fill:none;stroke:#bed4e7;stroke-linecap:round;stroke-width:1.5;"/>
   </g>
   <g id="patch_3">
    <path d="M 59.514063 356.53875 
L 59.514063 30.37875 
" style="fill:none;stroke:#262626;stroke-linecap:square;stroke-linejoin:miter;stroke-width:1.25;"/>
   </g>
   <g id="patch_4">
    <path d="M 729.114063 356.53875 
L 729.114063 30.37875 
" style="fill:none;stroke:#262626;stroke-linecap:square;stroke-linejoin:miter;stroke-width:1.25;"/>
   </g>
   <g id="patch_5">
    <path d="M 59.514062 356.53875 
L 729.114062 356.53875 
" style="fill:none;stroke:#262626;stroke-linecap:square;stroke-linejoin:miter;stroke-width:1.25;"/>
   </g>
   <g id="patch_6">
    <path d="M 59.514062 30.37875 
L 729.114062 30.37875 
" style="fill:none;stroke:#262626;stroke-linecap:square;stroke-linejoin:miter;stroke-width:1.25;"/>
   </g>
   <g id="text_13">
    <!-- Prevalence -->
    <defs>
     <path d="M 7.71875 0 
L 7.71875 71.578125 
L 34.71875 71.578125 
Q 41.84375 71.578125 45.609375 70.90625 
Q 50.875 70.015625 54.4375 67.546875 
Q 58.015625 65.09375 60.1875 60.640625 
Q 62.359375 56.203125 62.359375 50.875 
Q 62.359375 41.75 56.546875 35.421875 
Q 50.734375 29.109375 35.546875 29.109375 
L 17.1875 29.109375 
L 17.1875 0 
z
M 17.1875 37.546875 
L 35.6875 37.546875 
Q 44.875 37.546875 48.734375 40.96875 
Q 52.59375 44.390625 52.59375 50.59375 
Q 52.59375 55.078125 50.3125 58.265625 
Q 48.046875 61.46875 44.34375 62.5 
Q 41.9375 63.140625 35.5 63.140625 
L 17.1875 63.140625 
z
" id="ArialMT-80"/>
     <path d="M 6.5 0 
L 6.5 51.859375 
L 14.40625 51.859375 
L 14.40625 44 
Q 17.4375 49.515625 20 51.265625 
Q 22.5625 53.03125 25.640625 53.03125 
Q 30.078125 53.03125 34.671875 50.203125 
L 31.640625 42.046875 
Q 28.421875 43.953125 25.203125 43.953125 
Q 22.3125 43.953125 20.015625 42.21875 
Q 17.71875 40.484375 16.75 37.40625 
Q 15.28125 32.71875 15.28125 27.15625 
L 15.28125 0 
z
" id="ArialMT-114"/>
     <path d="M 42.09375 16.703125 
L 51.171875 15.578125 
Q 49.03125 7.625 43.21875 3.21875 
Q 37.40625 -1.171875 28.375 -1.171875 
Q 17 -1.171875 10.328125 5.828125 
Q 3.65625 12.84375 3.65625 25.484375 
Q 3.65625 38.578125 10.390625 45.796875 
Q 17.140625 53.03125 27.875 53.03125 
Q 38.28125 53.03125 44.875 45.953125 
Q 51.46875 38.875 51.46875 26.03125 
Q 51.46875 25.25 51.421875 23.6875 
L 12.75 23.6875 
Q 13.234375 15.140625 17.578125 10.59375 
Q 21.921875 6.0625 28.421875 6.0625 
Q 33.25 6.0625 36.671875 8.59375 
Q 40.09375 11.140625 42.09375 16.703125 
z
M 13.234375 30.90625 
L 42.1875 30.90625 
Q 41.609375 37.453125 38.875 40.71875 
Q 34.671875 45.796875 27.984375 45.796875 
Q 21.921875 45.796875 17.796875 41.75 
Q 13.671875 37.703125 13.234375 30.90625 
z
" id="ArialMT-101"/>
     <path d="M 21 0 
L 1.265625 51.859375 
L 10.546875 51.859375 
L 21.6875 20.796875 
Q 23.484375 15.765625 25 10.359375 
Q 26.171875 14.453125 28.265625 20.21875 
L 39.796875 51.859375 
L 48.828125 51.859375 
L 29.203125 0 
z
" id="ArialMT-118"/>
     <path d="M 40.4375 6.390625 
Q 35.546875 2.25 31.03125 0.53125 
Q 26.515625 -1.171875 21.34375 -1.171875 
Q 12.796875 -1.171875 8.203125 3 
Q 3.609375 7.171875 3.609375 13.671875 
Q 3.609375 17.484375 5.34375 20.625 
Q 7.078125 23.78125 9.890625 25.6875 
Q 12.703125 27.59375 16.21875 28.5625 
Q 18.796875 29.25 24.03125 29.890625 
Q 34.671875 31.15625 39.703125 32.90625 
Q 39.75 34.71875 39.75 35.203125 
Q 39.75 40.578125 37.25 42.78125 
Q 33.890625 45.75 27.25 45.75 
Q 21.046875 45.75 18.09375 43.578125 
Q 15.140625 41.40625 13.71875 35.890625 
L 5.125 37.0625 
Q 6.296875 42.578125 8.984375 45.96875 
Q 11.671875 49.359375 16.75 51.1875 
Q 21.828125 53.03125 28.515625 53.03125 
Q 35.15625 53.03125 39.296875 51.46875 
Q 43.453125 49.90625 45.40625 47.53125 
Q 47.359375 45.171875 48.140625 41.546875 
Q 48.578125 39.3125 48.578125 33.453125 
L 48.578125 21.734375 
Q 48.578125 9.46875 49.140625 6.21875 
Q 49.703125 2.984375 51.375 0 
L 42.1875 0 
Q 40.828125 2.734375 40.4375 6.390625 
z
M 39.703125 26.03125 
Q 34.90625 24.078125 25.34375 22.703125 
Q 19.921875 21.921875 17.671875 20.9375 
Q 15.4375 19.96875 14.203125 18.09375 
Q 12.984375 16.21875 12.984375 13.921875 
Q 12.984375 10.40625 15.640625 8.0625 
Q 18.3125 5.71875 23.4375 5.71875 
Q 28.515625 5.71875 32.46875 7.9375 
Q 36.421875 10.15625 38.28125 14.015625 
Q 39.703125 17 39.703125 22.796875 
z
" id="ArialMT-97"/>
     <path d="M 6.390625 0 
L 6.390625 71.578125 
L 15.1875 71.578125 
L 15.1875 0 
z
" id="ArialMT-108"/>
     <path d="M 6.59375 0 
L 6.59375 51.859375 
L 14.5 51.859375 
L 14.5 44.484375 
Q 20.21875 53.03125 31 53.03125 
Q 35.6875 53.03125 39.625 51.34375 
Q 43.5625 49.65625 45.515625 46.921875 
Q 47.46875 44.1875 48.25 40.4375 
Q 48.734375 37.984375 48.734375 31.890625 
L 48.734375 0 
L 39.9375 0 
L 39.9375 31.546875 
Q 39.9375 36.921875 38.90625 39.578125 
Q 37.890625 42.234375 35.28125 43.8125 
Q 32.671875 45.40625 29.15625 45.40625 
Q 23.53125 45.40625 19.453125 41.84375 
Q 15.375 38.28125 15.375 28.328125 
L 15.375 0 
z
" id="ArialMT-110"/>
     <path d="M 40.4375 19 
L 49.078125 17.875 
Q 47.65625 8.9375 41.8125 3.875 
Q 35.984375 -1.171875 27.484375 -1.171875 
Q 16.84375 -1.171875 10.375 5.78125 
Q 3.90625 12.75 3.90625 25.734375 
Q 3.90625 34.125 6.6875 40.421875 
Q 9.46875 46.734375 15.15625 49.875 
Q 20.84375 53.03125 27.546875 53.03125 
Q 35.984375 53.03125 41.359375 48.75 
Q 46.734375 44.484375 48.25 36.625 
L 39.703125 35.296875 
Q 38.484375 40.53125 35.375 43.15625 
Q 32.28125 45.796875 27.875 45.796875 
Q 21.234375 45.796875 17.078125 41.03125 
Q 12.9375 36.28125 12.9375 25.984375 
Q 12.9375 15.53125 16.9375 10.796875 
Q 20.953125 6.0625 27.390625 6.0625 
Q 32.5625 6.0625 36.03125 9.234375 
Q 39.5 12.40625 40.4375 19 
z
" id="ArialMT-99"/>
    </defs>
    <g style="fill:#262626;" transform="translate(334.282188 24.37875)scale(0.24 -0.24)">
     <use xlink:href="#ArialMT-80"/>
     <use x="66.699219" xlink:href="#ArialMT-114"/>
     <use x="100" xlink:href="#ArialMT-101"/>
     <use x="155.615234" xlink:href="#ArialMT-118"/>
     <use x="205.615234" xlink:href="#ArialMT-97"/>
     <use x="261.230469" xlink:href="#ArialMT-108"/>
     <use x="283.447266" xlink:href="#ArialMT-101"/>
     <use x="339.0625" xlink:href="#ArialMT-110"/>
     <use x="394.677734" xlink:href="#ArialMT-99"/>
     <use x="444.677734" xlink:href="#ArialMT-101"/>
    </g>
   </g>
   <g id="legend_1">
    <g id="patch_7">
     <path d="M 378.007812 203.577187 
L 713.714063 203.577187 
Q 718.114063 203.577187 718.114063 199.177187 
L 718.114063 45.77875 
Q 718.114063 41.37875 713.714063 41.37875 
L 378.007812 41.37875 
Q 373.607813 41.37875 373.607813 45.77875 
L 373.607813 199.177187 
Q 373.607813 203.577187 378.007812 203.577187 
z
" style="fill:#ffffff;opacity:0.8;stroke:#cccccc;stroke-linejoin:miter;"/>
    </g>
    <g id="line2d_6">
     <path d="M 382.407813 58.225937 
L 426.407813 58.225937 
" style="fill:none;stroke:#4da07e;stroke-linecap:round;stroke-width:1.5;"/>
    </g>
    <g id="line2d_7"/>
    <g id="text_14">
     <!-- Baseline -->
     <defs>
      <path d="M 7.328125 0 
L 7.328125 71.578125 
L 34.1875 71.578125 
Q 42.390625 71.578125 47.34375 69.40625 
Q 52.296875 67.234375 55.09375 62.71875 
Q 57.90625 58.203125 57.90625 53.265625 
Q 57.90625 48.6875 55.421875 44.625 
Q 52.9375 40.578125 47.90625 38.09375 
Q 54.390625 36.1875 57.875 31.59375 
Q 61.375 27 61.375 20.75 
Q 61.375 15.71875 59.25 11.390625 
Q 57.125 7.078125 54 4.734375 
Q 50.875 2.390625 46.15625 1.1875 
Q 41.453125 0 34.625 0 
z
M 16.796875 41.5 
L 32.28125 41.5 
Q 38.578125 41.5 41.3125 42.328125 
Q 44.921875 43.40625 46.75 45.890625 
Q 48.578125 48.390625 48.578125 52.15625 
Q 48.578125 55.71875 46.875 58.421875 
Q 45.171875 61.140625 41.984375 62.140625 
Q 38.8125 63.140625 31.109375 63.140625 
L 16.796875 63.140625 
z
M 16.796875 8.453125 
L 34.625 8.453125 
Q 39.203125 8.453125 41.0625 8.796875 
Q 44.34375 9.375 46.53125 10.734375 
Q 48.734375 12.109375 50.140625 14.71875 
Q 51.5625 17.328125 51.5625 20.75 
Q 51.5625 24.75 49.515625 27.703125 
Q 47.46875 30.671875 43.828125 31.859375 
Q 40.1875 33.0625 33.34375 33.0625 
L 16.796875 33.0625 
z
" id="ArialMT-66"/>
      <path d="M 3.078125 15.484375 
L 11.765625 16.84375 
Q 12.5 11.625 15.84375 8.84375 
Q 19.1875 6.0625 25.203125 6.0625 
Q 31.25 6.0625 34.171875 8.515625 
Q 37.109375 10.984375 37.109375 14.3125 
Q 37.109375 17.28125 34.515625 19 
Q 32.71875 20.171875 25.53125 21.96875 
Q 15.875 24.421875 12.140625 26.203125 
Q 8.40625 27.984375 6.46875 31.125 
Q 4.546875 34.28125 4.546875 38.09375 
Q 4.546875 41.546875 6.125 44.5 
Q 7.71875 47.46875 10.453125 49.421875 
Q 12.5 50.921875 16.03125 51.96875 
Q 19.578125 53.03125 23.640625 53.03125 
Q 29.734375 53.03125 34.34375 51.265625 
Q 38.96875 49.515625 41.15625 46.5 
Q 43.359375 43.5 44.1875 38.484375 
L 35.59375 37.3125 
Q 35.015625 41.3125 32.203125 43.546875 
Q 29.390625 45.796875 24.265625 45.796875 
Q 18.21875 45.796875 15.625 43.796875 
Q 13.03125 41.796875 13.03125 39.109375 
Q 13.03125 37.40625 14.109375 36.03125 
Q 15.1875 34.625 17.484375 33.6875 
Q 18.796875 33.203125 25.25 31.453125 
Q 34.578125 28.953125 38.25 27.359375 
Q 41.9375 25.78125 44.03125 22.75 
Q 46.140625 19.734375 46.140625 15.234375 
Q 46.140625 10.84375 43.578125 6.953125 
Q 41.015625 3.078125 36.171875 0.953125 
Q 31.34375 -1.171875 25.25 -1.171875 
Q 15.140625 -1.171875 9.84375 3.03125 
Q 4.546875 7.234375 3.078125 15.484375 
z
" id="ArialMT-115"/>
      <path d="M 6.640625 61.46875 
L 6.640625 71.578125 
L 15.4375 71.578125 
L 15.4375 61.46875 
z
M 6.640625 0 
L 6.640625 51.859375 
L 15.4375 51.859375 
L 15.4375 0 
z
" id="ArialMT-105"/>
     </defs>
     <g style="fill:#262626;" transform="translate(444.007813 65.925937)scale(0.22 -0.22)">
      <use xlink:href="#ArialMT-66"/>
      <use x="66.699219" xlink:href="#ArialMT-97"/>
      <use x="122.314453" xlink:href="#ArialMT-115"/>
      <use x="172.314453" xlink:href="#ArialMT-101"/>
      <use x="227.929688" xlink:href="#ArialMT-108"/>
      <use x="250.146484" xlink:href="#ArialMT-105"/>
      <use x="272.363281" xlink:href="#ArialMT-110"/>
      <use x="327.978516" xlink:href="#ArialMT-101"/>
     </g>
    </g>
    <g id="line2d_8">
     <path d="M 382.407813 89.345625 
L 426.407813 89.345625 
" style="fill:none;stroke:#d4743e;stroke-linecap:round;stroke-width:1.5;"/>
    </g>
    <g id="line2d_9"/>
    <g id="text_15">
     <!-- School Plus Work4Weeks -->
     <defs>
      <path d="M 4.5 23 
L 13.421875 23.78125 
Q 14.0625 18.40625 16.375 14.96875 
Q 18.703125 11.53125 23.578125 9.40625 
Q 28.46875 7.28125 34.578125 7.28125 
Q 39.984375 7.28125 44.140625 8.890625 
Q 48.296875 10.5 50.3125 13.296875 
Q 52.34375 16.109375 52.34375 19.4375 
Q 52.34375 22.796875 50.390625 25.3125 
Q 48.4375 27.828125 43.953125 29.546875 
Q 41.0625 30.671875 31.203125 33.03125 
Q 21.34375 35.40625 17.390625 37.5 
Q 12.25 40.1875 9.734375 44.15625 
Q 7.234375 48.140625 7.234375 53.078125 
Q 7.234375 58.5 10.296875 63.203125 
Q 13.375 67.921875 19.28125 70.359375 
Q 25.203125 72.796875 32.421875 72.796875 
Q 40.375 72.796875 46.453125 70.234375 
Q 52.546875 67.671875 55.8125 62.6875 
Q 59.078125 57.71875 59.328125 51.421875 
L 50.25 50.734375 
Q 49.515625 57.515625 45.28125 60.984375 
Q 41.0625 64.453125 32.8125 64.453125 
Q 24.21875 64.453125 20.28125 61.296875 
Q 16.359375 58.15625 16.359375 53.71875 
Q 16.359375 49.859375 19.140625 47.359375 
Q 21.875 44.875 33.421875 42.265625 
Q 44.96875 39.65625 49.265625 37.703125 
Q 55.515625 34.8125 58.484375 30.390625 
Q 61.46875 25.984375 61.46875 20.21875 
Q 61.46875 14.5 58.203125 9.4375 
Q 54.9375 4.390625 48.796875 1.578125 
Q 42.671875 -1.21875 35.015625 -1.21875 
Q 25.296875 -1.21875 18.71875 1.609375 
Q 12.15625 4.4375 8.421875 10.125 
Q 4.6875 15.828125 4.5 23 
z
" id="ArialMT-83"/>
      <path d="M 6.59375 0 
L 6.59375 71.578125 
L 15.375 71.578125 
L 15.375 45.90625 
Q 21.53125 53.03125 30.90625 53.03125 
Q 36.671875 53.03125 40.921875 50.75 
Q 45.171875 48.484375 47 44.484375 
Q 48.828125 40.484375 48.828125 32.859375 
L 48.828125 0 
L 40.046875 0 
L 40.046875 32.859375 
Q 40.046875 39.453125 37.1875 42.453125 
Q 34.328125 45.453125 29.109375 45.453125 
Q 25.203125 45.453125 21.75 43.421875 
Q 18.3125 41.40625 16.84375 37.9375 
Q 15.375 34.46875 15.375 28.375 
L 15.375 0 
z
" id="ArialMT-104"/>
      <path d="M 3.328125 25.921875 
Q 3.328125 40.328125 11.328125 47.265625 
Q 18.015625 53.03125 27.640625 53.03125 
Q 38.328125 53.03125 45.109375 46.015625 
Q 51.90625 39.015625 51.90625 26.65625 
Q 51.90625 16.65625 48.90625 10.90625 
Q 45.90625 5.171875 40.15625 2 
Q 34.421875 -1.171875 27.640625 -1.171875 
Q 16.75 -1.171875 10.03125 5.8125 
Q 3.328125 12.796875 3.328125 25.921875 
z
M 12.359375 25.921875 
Q 12.359375 15.96875 16.703125 11.015625 
Q 21.046875 6.0625 27.640625 6.0625 
Q 34.1875 6.0625 38.53125 11.03125 
Q 42.875 16.015625 42.875 26.21875 
Q 42.875 35.84375 38.5 40.796875 
Q 34.125 45.75 27.640625 45.75 
Q 21.046875 45.75 16.703125 40.8125 
Q 12.359375 35.890625 12.359375 25.921875 
z
" id="ArialMT-111"/>
      <path id="ArialMT-32"/>
      <path d="M 40.578125 0 
L 40.578125 7.625 
Q 34.515625 -1.171875 24.125 -1.171875 
Q 19.53125 -1.171875 15.546875 0.578125 
Q 11.578125 2.34375 9.640625 5 
Q 7.71875 7.671875 6.9375 11.53125 
Q 6.390625 14.109375 6.390625 19.734375 
L 6.390625 51.859375 
L 15.1875 51.859375 
L 15.1875 23.09375 
Q 15.1875 16.21875 15.71875 13.8125 
Q 16.546875 10.359375 19.234375 8.375 
Q 21.921875 6.390625 25.875 6.390625 
Q 29.828125 6.390625 33.296875 8.421875 
Q 36.765625 10.453125 38.203125 13.9375 
Q 39.65625 17.4375 39.65625 24.078125 
L 39.65625 51.859375 
L 48.4375 51.859375 
L 48.4375 0 
z
" id="ArialMT-117"/>
      <path d="M 20.21875 0 
L 1.21875 71.578125 
L 10.9375 71.578125 
L 21.828125 24.65625 
Q 23.578125 17.28125 24.859375 10.015625 
Q 27.59375 21.484375 28.078125 23.25 
L 41.703125 71.578125 
L 53.125 71.578125 
L 63.375 35.359375 
Q 67.234375 21.875 68.953125 10.015625 
Q 70.3125 16.796875 72.515625 25.59375 
L 83.734375 71.578125 
L 93.265625 71.578125 
L 73.640625 0 
L 64.5 0 
L 49.421875 54.546875 
Q 47.515625 61.375 47.171875 62.9375 
Q 46.046875 58.015625 45.0625 54.546875 
L 29.890625 0 
z
" id="ArialMT-87"/>
      <path d="M 6.640625 0 
L 6.640625 71.578125 
L 15.4375 71.578125 
L 15.4375 30.765625 
L 36.234375 51.859375 
L 47.609375 51.859375 
L 27.78125 32.625 
L 49.609375 0 
L 38.765625 0 
L 21.625 26.515625 
L 15.4375 20.5625 
L 15.4375 0 
z
" id="ArialMT-107"/>
      <path d="M 32.328125 0 
L 32.328125 17.140625 
L 1.265625 17.140625 
L 1.265625 25.203125 
L 33.9375 71.578125 
L 41.109375 71.578125 
L 41.109375 25.203125 
L 50.78125 25.203125 
L 50.78125 17.140625 
L 41.109375 17.140625 
L 41.109375 0 
z
M 32.328125 25.203125 
L 32.328125 57.46875 
L 9.90625 25.203125 
z
" id="ArialMT-52"/>
     </defs>
     <g style="fill:#262626;" transform="translate(444.007813 97.045625)scale(0.22 -0.22)">
      <use xlink:href="#ArialMT-83"/>
      <use x="66.699219" xlink:href="#ArialMT-99"/>
      <use x="116.699219" xlink:href="#ArialMT-104"/>
      <use x="172.314453" xlink:href="#ArialMT-111"/>
      <use x="227.929688" xlink:href="#ArialMT-111"/>
      <use x="283.544922" xlink:href="#ArialMT-108"/>
      <use x="305.761719" xlink:href="#ArialMT-32"/>
      <use x="333.544922" xlink:href="#ArialMT-80"/>
      <use x="400.244141" xlink:href="#ArialMT-108"/>
      <use x="422.460938" xlink:href="#ArialMT-117"/>
      <use x="478.076172" xlink:href="#ArialMT-115"/>
      <use x="528.076172" xlink:href="#ArialMT-32"/>
      <use x="555.859375" xlink:href="#ArialMT-87"/>
      <use x="650.228516" xlink:href="#ArialMT-111"/>
      <use x="705.84375" xlink:href="#ArialMT-114"/>
      <use x="739.144531" xlink:href="#ArialMT-107"/>
      <use x="789.144531" xlink:href="#ArialMT-52"/>
      <use x="844.759766" xlink:href="#ArialMT-87"/>
      <use x="939.128906" xlink:href="#ArialMT-101"/>
      <use x="994.744141" xlink:href="#ArialMT-101"/>
      <use x="1050.359375" xlink:href="#ArialMT-107"/>
      <use x="1100.359375" xlink:href="#ArialMT-115"/>
     </g>
    </g>
    <g id="line2d_10">
     <path d="M 382.407813 120.465312 
L 426.407813 120.465312 
" style="fill:none;stroke:#716dad;stroke-linecap:round;stroke-width:1.5;"/>
    </g>
    <g id="line2d_11"/>
    <g id="text_16">
     <!-- School Plus Work8Weeks -->
     <defs>
      <path d="M 17.671875 38.8125 
Q 12.203125 40.828125 9.5625 44.53125 
Q 6.9375 48.25 6.9375 53.421875 
Q 6.9375 61.234375 12.546875 66.546875 
Q 18.171875 71.875 27.484375 71.875 
Q 36.859375 71.875 42.578125 66.421875 
Q 48.296875 60.984375 48.296875 53.171875 
Q 48.296875 48.1875 45.671875 44.5 
Q 43.0625 40.828125 37.75 38.8125 
Q 44.34375 36.671875 47.78125 31.875 
Q 51.21875 27.09375 51.21875 20.453125 
Q 51.21875 11.28125 44.71875 5.03125 
Q 38.234375 -1.21875 27.640625 -1.21875 
Q 17.046875 -1.21875 10.546875 5.046875 
Q 4.046875 11.328125 4.046875 20.703125 
Q 4.046875 27.6875 7.59375 32.390625 
Q 11.140625 37.109375 17.671875 38.8125 
z
M 15.921875 53.71875 
Q 15.921875 48.640625 19.1875 45.40625 
Q 22.46875 42.1875 27.6875 42.1875 
Q 32.765625 42.1875 36.015625 45.375 
Q 39.265625 48.578125 39.265625 53.21875 
Q 39.265625 58.0625 35.90625 61.359375 
Q 32.5625 64.65625 27.59375 64.65625 
Q 22.5625 64.65625 19.234375 61.421875 
Q 15.921875 58.203125 15.921875 53.71875 
z
M 13.09375 20.65625 
Q 13.09375 16.890625 14.875 13.375 
Q 16.65625 9.859375 20.171875 7.921875 
Q 23.6875 6 27.734375 6 
Q 34.03125 6 38.125 10.046875 
Q 42.234375 14.109375 42.234375 20.359375 
Q 42.234375 26.703125 38.015625 30.859375 
Q 33.796875 35.015625 27.4375 35.015625 
Q 21.234375 35.015625 17.15625 30.90625 
Q 13.09375 26.8125 13.09375 20.65625 
z
" id="ArialMT-56"/>
     </defs>
     <g style="fill:#262626;" transform="translate(444.007813 128.165312)scale(0.22 -0.22)">
      <use xlink:href="#ArialMT-83"/>
      <use x="66.699219" xlink:href="#ArialMT-99"/>
      <use x="116.699219" xlink:href="#ArialMT-104"/>
      <use x="172.314453" xlink:href="#ArialMT-111"/>
      <use x="227.929688" xlink:href="#ArialMT-111"/>
      <use x="283.544922" xlink:href="#ArialMT-108"/>
      <use x="305.761719" xlink:href="#ArialMT-32"/>
      <use x="333.544922" xlink:href="#ArialMT-80"/>
      <use x="400.244141" xlink:href="#ArialMT-108"/>
      <use x="422.460938" xlink:href="#ArialMT-117"/>
      <use x="478.076172" xlink:href="#ArialMT-115"/>
      <use x="528.076172" xlink:href="#ArialMT-32"/>
      <use x="555.859375" xlink:href="#ArialMT-87"/>
      <use x="650.228516" xlink:href="#ArialMT-111"/>
      <use x="705.84375" xlink:href="#ArialMT-114"/>
      <use x="739.144531" xlink:href="#ArialMT-107"/>
      <use x="789.144531" xlink:href="#ArialMT-56"/>
      <use x="844.759766" xlink:href="#ArialMT-87"/>
      <use x="939.128906" xlink:href="#ArialMT-101"/>
      <use x="994.744141" xlink:href="#ArialMT-101"/>
      <use x="1050.359375" xlink:href="#ArialMT-107"/>
      <use x="1100.359375" xlink:href="#ArialMT-115"/>
     </g>
    </g>
    <g id="line2d_12">
     <path d="M 382.407813 151.585 
L 426.407813 151.585 
" style="fill:none;stroke:#df3793;stroke-linecap:round;stroke-width:1.5;"/>
    </g>
    <g id="line2d_13"/>
    <g id="text_17">
     <!-- School Plus Work12Weeks -->
     <g style="fill:#262626;" transform="translate(444.007813 159.285)scale(0.22 -0.22)">
      <use xlink:href="#ArialMT-83"/>
      <use x="66.699219" xlink:href="#ArialMT-99"/>
      <use x="116.699219" xlink:href="#ArialMT-104"/>
      <use x="172.314453" xlink:href="#ArialMT-111"/>
      <use x="227.929688" xlink:href="#ArialMT-111"/>
      <use x="283.544922" xlink:href="#ArialMT-108"/>
      <use x="305.761719" xlink:href="#ArialMT-32"/>
      <use x="333.544922" xlink:href="#ArialMT-80"/>
      <use x="400.244141" xlink:href="#ArialMT-108"/>
      <use x="422.460938" xlink:href="#ArialMT-117"/>
      <use x="478.076172" xlink:href="#ArialMT-115"/>
      <use x="528.076172" xlink:href="#ArialMT-32"/>
      <use x="555.859375" xlink:href="#ArialMT-87"/>
      <use x="650.228516" xlink:href="#ArialMT-111"/>
      <use x="705.84375" xlink:href="#ArialMT-114"/>
      <use x="739.144531" xlink:href="#ArialMT-107"/>
      <use x="789.144531" xlink:href="#ArialMT-49"/>
      <use x="844.759766" xlink:href="#ArialMT-50"/>
      <use x="900.375" xlink:href="#ArialMT-87"/>
      <use x="994.744141" xlink:href="#ArialMT-101"/>
      <use x="1050.359375" xlink:href="#ArialMT-101"/>
      <use x="1105.974609" xlink:href="#ArialMT-107"/>
      <use x="1155.974609" xlink:href="#ArialMT-115"/>
     </g>
    </g>
    <g id="line2d_14">
     <path d="M 382.407813 182.704687 
L 426.407813 182.704687 
" style="fill:none;stroke:#bed4e7;stroke-linecap:round;stroke-width:1.5;"/>
    </g>
    <g id="line2d_15"/>
    <g id="text_18">
     <!-- School Plus Work Forever -->
     <defs>
      <path d="M 8.203125 0 
L 8.203125 71.578125 
L 56.5 71.578125 
L 56.5 63.140625 
L 17.671875 63.140625 
L 17.671875 40.96875 
L 51.265625 40.96875 
L 51.265625 32.515625 
L 17.671875 32.515625 
L 17.671875 0 
z
" id="ArialMT-70"/>
     </defs>
     <g style="fill:#262626;" transform="translate(444.007813 190.404687)scale(0.22 -0.22)">
      <use xlink:href="#ArialMT-83"/>
      <use x="66.699219" xlink:href="#ArialMT-99"/>
      <use x="116.699219" xlink:href="#ArialMT-104"/>
      <use x="172.314453" xlink:href="#ArialMT-111"/>
      <use x="227.929688" xlink:href="#ArialMT-111"/>
      <use x="283.544922" xlink:href="#ArialMT-108"/>
      <use x="305.761719" xlink:href="#ArialMT-32"/>
      <use x="333.544922" xlink:href="#ArialMT-80"/>
      <use x="400.244141" xlink:href="#ArialMT-108"/>
      <use x="422.460938" xlink:href="#ArialMT-117"/>
      <use x="478.076172" xlink:href="#ArialMT-115"/>
      <use x="528.076172" xlink:href="#ArialMT-32"/>
      <use x="555.859375" xlink:href="#ArialMT-87"/>
      <use x="650.228516" xlink:href="#ArialMT-111"/>
      <use x="705.84375" xlink:href="#ArialMT-114"/>
      <use x="739.144531" xlink:href="#ArialMT-107"/>
      <use x="789.144531" xlink:href="#ArialMT-32"/>
      <use x="816.927734" xlink:href="#ArialMT-70"/>
      <use x="878.011719" xlink:href="#ArialMT-111"/>
      <use x="933.626953" xlink:href="#ArialMT-114"/>
      <use x="966.927734" xlink:href="#ArialMT-101"/>
      <use x="1022.542969" xlink:href="#ArialMT-118"/>
      <use x="1072.542969" xlink:href="#ArialMT-101"/>
      <use x="1128.158203" xlink:href="#ArialMT-114"/>
     </g>
    </g>
   </g>
  </g>
 </g>
 <defs>
  <clipPath id="p910a896fde">
   <rect height="326.16" width="669.6" x="59.514063" y="30.37875"/>
  </clipPath>
 </defs>
</svg>
